<?xml version="1.0" encoding="utf-8"?>
<!-- Generator: Adobe Illustrator 19.0.1, SVG Export Plug-In . SVG Version: 6.00 Build 0)  -->
<svg version="1.1" id="Слой_1" xmlns="http://www.w3.org/2000/svg" xmlns:xlink="http://www.w3.org/1999/xlink" x="0px" y="0px"
	 viewBox="0 0 333 274" enable-background="new 0 0 333 274" xml:space="preserve">
<g>
	<path fill="none" d="M6.2,146.2c0-7.4,0-14.9,0-22.3c0.1,0.4,0.2,0.7,0.3,1.1c0.4,2.1,1.6,3.1,3.7,3.2c2,0.1,3.2-0.8,3.7-2.8
		c0.2-1,0.4-2,0.5-3c1.1-7.7,6.3-13.2,13.8-14.5c3.6-0.6,7.1,0.1,10.5,1c6.9,1.7,13.7,3.6,20.6,5c7.4,1.5,14.8,1.9,22.3,0.9
		c6-0.8,12-1.6,17.9-2.4c9.3-1.3,18.5-2.7,27.7-4.1c0.6-0.1,1.2-0.4,1.6-0.9c0.9-1,1.7-2.2,2.5-3.2c-0.6-0.7-1.1-1.4-1.7-1.8
		c-1-0.7-2.1-1.4-3.2-1.7c-1.3-0.3-2.7-0.1-4.1-0.2c-1.2,0-2.4,0-3.6,0c0-7.9,0-15.8,0-23.7c31.8,0,63.6,0,95.3,0
		c0,18,0,35.9,0,53.7c-0.1,0.1-0.2,0.2-0.3,0.3c-2.3-1.8-4.8-3.4-7-5.3c-7.3-6.7-15.1-12.6-24.3-16.5c-5.7-2.4-4.4-2.2-9.6,0
		c-0.1,0-0.1,0.1-0.3,0.2c0.6,1.1,1.2,2.2,1.8,3.4c0.6,1.2,1.5,2,2.9,2.6c10.2,4.4,19.2,10.7,26.9,18.9c4.8,5.1,8.7,10.9,12.4,16.9
		c5,8,11.3,14.6,19.4,19.5c10.1,6.1,21.1,8.2,32.7,7.9c2.9-0.1,5.8,0.1,8.6,0.5c13.1,1.8,23.6,8,31.7,18.4
		c6.5,8.3,9.1,18.1,9.5,28.4c0.3,6.9,0,13.9,0,20.9c0,1.9-0.2,3.9-0.2,5.9c-0.6,0-1.1,0-1.6,0c-43.4,0-86.7,0-130.1,0
		c-0.8,0-1.7,0-2.5-0.1c-2.5-0.4-4.3,1-5.8,2.7c-0.7,0.8-0.8,1.7-0.1,2.5c1.5,1.9,3.3,3.4,6,3c0.9-0.1,1.8-0.1,2.8-0.1
		c44.3,0,88.6,0,133,0c1.1,0,2.2-0.1,3.3-0.2c2-0.3,2.8-1.2,3-3.2c0.1-1.2,0.2-2.5,0.2-3.7c0-79.7,0-159.4,0-239
		c0-1.3-0.1-2.6-0.2-3.8c-0.2-1.6-1-2.4-2.6-2.8c-0.3-0.1-0.5-0.2-0.8-0.2c1.3,0,2.6,0,3.8,0c0,87.5,0,175,0,262.5
		c-106.8,0-213.6,0-320.4,0c0-5,0-10.1,0-15.1c0.1,0.5,0.2,0.9,0.2,1.4c0.2,2.7,1.1,3.7,3.8,4.1c0.9,0.1,1.9,0.1,2.9,0.1
		c34.2,0,68.4,0,102.6,0c0.6,0,1.3,0,1.9,0.1c2.7,0.5,4.5-1,6.1-2.8c0.7-0.8,0.7-1.8,0-2.6c-1.5-1.7-3.2-3.2-5.8-2.7
		c-0.6,0.1-1.2,0.1-1.8,0.1c-33.5,0-67,0-100.5,0c-0.4,0-0.8,0-1.4-0.1c0-0.6,0-1.1,0-1.7c0-33.3,0-66.6,0-99.8c0-0.7,0-1.4,0.1-2.2
		c0.1-2-0.4-3.8-2.1-5.1c-1.2-0.9-2.1-1.1-3.3-0.1C7.9,144.2,7.1,145.3,6.2,146.2z M147.6,191c-0.5,0-0.8,0.1-1.1,0.1
		c-9.4,0-18.8,0-28.2,0c-1.2,0-2.3,0-3.5-0.2c-1.8-0.3-2.6-1.5-2.1-3.3c0.2-0.7,0.5-1.4,0.8-2.1c2.6-5.8,5.3-11.5,8-17.3
		c8.9-19.2,17.7-38.3,26.6-57.5c0.5-1.2,1.4-2.2,2.2-3.2c0.5-0.7,1.2-0.6,1.9-0.2c1.3,0.7,2.2,1.8,2.8,3.2
		c11.2,24.2,22.4,48.3,33.5,72.5c0.7,1.6,1.4,3.1,2,4.8c0.6,1.9-0.2,3-2.2,3.3c-1.2,0.2-2.5,0.2-3.7,0.3c-4.6,0-9.2,0-13.8,0
		c-2.1,0-3.8,0.8-5.2,2.3c-1.6,1.7-1,4.1,1.1,4.8c0.9,0.3,1.9,0.5,2.8,0.5c4.5,0.1,9,0.1,13.4,0.1c2.3,0,4.6-0.1,6.9-0.4
		c5-0.7,8.2-4.1,8.7-8.8c0.2-2.4-0.5-4.7-1.5-7c-6.4-13.9-12.8-27.9-19.2-41.8c-5.5-11.8-10.9-23.6-16.4-35.4
		c-1.1-2.4-2.6-4.5-5-5.8c-5.6-2.9-11.9-0.6-14.7,5.4c-10.7,23.2-21.5,46.5-32.2,69.7c-1.5,3.3-3.1,6.6-4.4,10
		c-2.4,6.4,0.8,12.2,7.4,13.6c1.3,0.3,2.6,0.3,3.9,0.3c6.4,0,12.8,0,19.2,0c3.7,0,7.5,0.1,11.2,0.2c1.6,6.1,0,9.1-3.9,11.1
		c-1,0.5-1.9,1.3-2.7,2.2c-2.3,2.6-3.1,5.7-3.1,9.1c0,10.3,0,20.6,0,31c0,1.4,0,2.7,0.2,4.1c0.6,4.3,2.3,8.1,6,10.7
		c7,4.9,20.4,2.9,22.2-10.3c0.6-4.2,0.4-8.6,0.4-12.9c0-7.2,0-14.5-0.1-21.7c-0.1-5.4-2.3-9.9-6.7-13c-2.7-1.9-3.8-4.3-3.8-7.5
		c0-7.9,0-15.8-0.1-23.6c0-0.7-0.1-1.4-0.2-2c-0.3-2.2-1.3-3.1-3.3-3.2c-2.3-0.1-3.7,0.8-4.1,2.9c-0.2,1.1-0.3,2.2-0.3,3.3
		C147.5,183,147.6,186.9,147.6,191z M295.6,216c-0.1,0-0.1,0-0.2,0c0-1.6,0.1-3.3,0-4.9c0-0.6-0.3-1.3-0.7-1.7
		c-1.7-1.9-3.1-1.9-5.1-0.4c-1.2,0.9-1.6,2.1-1.6,3.6c0,3.1,0.1,6.2-0.1,9.3c-0.1,1.6-0.4,3.4-1,4.9c-1.1,3-3.6,4.6-6.8,4.9
		c-3,0.3-5.5-0.6-7.2-3.1c-0.9-1.4-1.5-3.1-2-4.7c-1.5-4.8-3.9-8.9-8.1-11.8c-2.6-1.8-5.6-2.9-8.7-3.6c-4.9-1.1-7.3-3.7-8-8.6
		c-0.3-2.2-0.6-4.4-1.1-6.6c-0.5-1.9-2-2.9-3.8-3.4c-0.4-0.1-1.1,0-1.5,0.2c-1.2,0.7-2.3,1.7-2.4,3.2c-0.1,2.2-0.4,4.5,0.1,6.7
		c1.6,7.6,5.7,13.3,13.6,15.5c7.2,2,11.8,6.5,13.5,13.9c0.8,3.6,3,6.2,6.2,8c3.9,2.1,8,2.6,12.3,1.9c6.2-1,9.7-4.2,10.9-10.3
		C294.8,224.8,295.1,220.4,295.6,216z M92,158.9c-0.6,0.4-1,0.9-1.6,1.2c-2.3,1.5-3.4,3.6-3.6,6.3c-0.1,1.9-0.3,3.8-0.7,5.7
		c-0.8,4.5-3.4,6.9-7.7,7.2c-8.8,0.6-14.2,5-16.6,13.5c-0.4,1.5-0.7,3-1.2,4.5c-1.2,3.5-4.1,5.4-8.1,5.4c-3.8,0-6.5-1.7-7.7-5
		c-0.6-1.9-0.8-3.9-1-5.9c-0.2-1.7,0-3.4-0.2-5c-0.3-2.3-1.7-3.2-4.4-3c-2.1,0.2-3.1,1.2-3.1,3.5c0,2.7-0.1,5.4,0,8
		c0.4,9.7,9.1,16.8,18.7,15.3c6.7-1,10.9-5.2,13.2-11.3c0.7-1.8,1.1-3.7,1.8-5.5c1.4-3.6,3.9-6,7.9-6.6c1-0.2,2.1-0.2,3.1-0.3
		c5.2-0.6,9-3.2,10.9-8.1c1.9-4.8,2.7-9.8,3.2-14.9c0.1-0.6-0.2-1.4-0.5-2C93.7,160.9,92.8,159.9,92,158.9z"/>
	<path d="M322.8,7.2c0.3,0.1,0.5,0.2,0.8,0.2c1.6,0.4,2.4,1.1,2.6,2.8c0.2,1.3,0.2,2.5,0.2,3.8c0,79.7,0,159.4,0,239
		c0,1.2-0.1,2.5-0.2,3.7c-0.2,2-1,2.8-3,3.2c-1.1,0.2-2.2,0.2-3.3,0.2c-44.3,0-88.6,0-133,0c-0.9,0-1.8,0-2.8,0.1
		c-2.7,0.4-4.5-1-6-3c-0.7-0.8-0.6-1.7,0.1-2.5c1.6-1.7,3.3-3,5.8-2.7c0.8,0.1,1.7,0.1,2.5,0.1c43.4,0,86.7,0,130.1,0
		c0.5,0,1,0,1.6,0c0.1-2,0.2-3.9,0.2-5.9c0-7,0.3-13.9,0-20.9c-0.4-10.3-3-20.1-9.5-28.4c-8.1-10.3-18.7-16.6-31.7-18.4
		c-2.8-0.4-5.7-0.6-8.6-0.5c-11.6,0.3-22.7-1.8-32.7-7.9c-8-4.9-14.4-11.5-19.4-19.5c-3.7-5.9-7.6-11.8-12.4-16.9
		c-7.7-8.2-16.6-14.4-26.9-18.9c-1.4-0.6-2.2-1.4-2.9-2.6c-0.6-1.1-1.2-2.2-1.8-3.4c0.1-0.1,0.2-0.1,0.3-0.2c5.2-2.2,3.9-2.4,9.6,0
		c9.2,3.9,17,9.8,24.3,16.5c2.1,2,4.6,3.6,7,5.3c0.1-0.1,0.2-0.2,0.3-0.3c0-17.9,0-35.8,0-53.7c-31.7,0-63.4,0-95.3,0
		c0,7.9,0,15.8,0,23.7c1.2,0,2.4,0,3.6,0c1.4,0,2.8-0.1,4.1,0.2c1.1,0.3,2.2,1,3.2,1.7c0.6,0.4,1.1,1.1,1.7,1.8
		c-0.8,1-1.5,2.2-2.5,3.2c-0.4,0.4-1,0.8-1.6,0.9c-9.2,1.4-18.5,2.8-27.7,4.1c-6,0.9-11.9,1.7-17.9,2.4c-7.5,0.9-15,0.6-22.3-0.9
		c-6.9-1.4-13.7-3.3-20.6-5c-3.5-0.8-7-1.6-10.5-1c-7.5,1.3-12.7,6.8-13.8,14.5c-0.1,1-0.3,2-0.5,3c-0.5,2-1.7,2.9-3.7,2.8
		c-2.1-0.1-3.4-1.1-3.7-3.2c-0.1-0.4-0.2-0.7-0.3-1.1c0-37.2,0-74.4,0-111.6c0.1-0.2,0.2-0.4,0.2-0.5C6.4,9.3,7.3,7.7,9.8,7.2
		C114.2,7.2,218.5,7.2,322.8,7.2z M162.1,15.5c-31.8,0-63.5,0-95.3,0c0,17.6,0,35.1,0,52.6c31.8,0,63.5,0,95.3,0
		C162.1,50.5,162.1,33.1,162.1,15.5z M170.7,67.9c31.8,0,63.6,0,95.4,0c0-17.5,0-34.9,0-52.3c-31.8,0-63.6,0-95.4,0
		C170.7,33.1,170.7,50.4,170.7,67.9z M318.2,76.8c-31.9,0-63.6,0-95.4,0c0,17.5,0,34.9,0,52.3c31.8,0,63.6,0,95.4,0
		C318.2,111.7,318.2,94.3,318.2,76.8z M216.6,137.8c4.2,5.5,8,10.8,12.1,16c6.7,8.4,15.4,13.5,26,15.6c5.5,1.1,11.1,1,16.7,1.1
		c9.3,0.1,18,2.2,26.2,6.7c7,3.9,12.7,9.1,17.6,15.4c0.9,1.1,1.9,2.2,3,3.4c0-19.6,0-38.9,0-58.2
		C284.4,137.8,250.7,137.8,216.6,137.8z M109.9,76.7c-31.8,0-63.5,0-95.2,0c0,9.4,0,18.7,0,28.1c2.5-1.1,4.9-2.3,7.4-3.3
		c4-1.7,8.2-2.9,12.6-2.1c2.8,0.6,5.7,1.3,8.4,2.3c10,3.6,20.3,5.5,31,5.3c8-0.1,16-1.2,23.9-2.7c4-0.8,8-1.7,11.9-2.5
		C109.9,93.4,109.9,85.1,109.9,76.7z M58.4,68.1c0-0.6,0-1.1,0-1.6c0-12.8,0-25.7,0-38.5c0-3.2,0-6.5,0-9.7c0-2.3-0.7-3.2-3.1-3.4
		c-0.4,0-0.7,0-1.1,0C48.5,15,42.8,15,37.1,15c-6.2,0-12.3-0.1-18.5-0.1c-3.3,0-4.5,1.1-4.5,4.5c0,4.4,0,8.9,0,13.3
		c0,10.4,0,20.9,0.1,31.3c0,1.4,0.2,2.7,0.3,4.1C29.3,68.1,43.7,68.1,58.4,68.1z M274.8,68.1c14.7,0,29.2,0,43.7,0
		c0-0.4,0.1-0.7,0.1-1c0-13.7,0-27.4,0-41.1c0-2.5,0-5-0.1-7.4c-0.1-1.6-1.8-3.3-3.5-3.3c-4.4,0-8.9-0.1-13.3-0.1c-1.5,0-3,0-4.4,0
		c-6.6,0-13.2-0.1-19.8,0c-2,0-2.9,1.1-3,3c0,0.3,0,0.6,0,1c0,15.4,0,30.7,0.1,46.1C274.4,66,274.6,67.1,274.8,68.1z"/>
	<path d="M6.2,146.2c0.9-0.9,1.7-2,2.7-2.8c1.2-0.9,2.1-0.8,3.3,0.1c1.7,1.3,2.2,3.1,2.1,5.1c0,0.7-0.1,1.4-0.1,2.2
		c0,33.3,0,66.6,0,99.8c0,0.5,0,1,0,1.7c0.5,0,0.9,0.1,1.4,0.1c33.5,0,67,0,100.5,0c0.6,0,1.2,0,1.8-0.1c2.6-0.5,4.2,1,5.8,2.7
		c0.8,0.8,0.8,1.8,0,2.6c-1.6,1.8-3.4,3.3-6.1,2.8c-0.6-0.1-1.3-0.1-1.9-0.1c-34.2,0-68.4,0-102.6,0c-1,0-1.9,0-2.9-0.1
		c-2.7-0.4-3.6-1.4-3.8-4.1c0-0.5-0.2-0.9-0.2-1.4C6.2,218.5,6.2,182.4,6.2,146.2z"/>
	<path fill="#FFFFFF" d="M9.8,7.2c-2.6,0.4-3.5,2.1-3.4,4.5c0,0.2-0.1,0.4-0.2,0.5c0-1.7,0-3.3,0-5C7.4,7.2,8.6,7.2,9.8,7.2z"/>
	<path d="M147.6,191c0-4,0-8,0-11.9c0-1.1,0.1-2.2,0.3-3.3c0.4-2.1,1.8-3,4.1-2.9c2,0.1,3,1,3.3,3.2c0.1,0.7,0.1,1.4,0.2,2
		c0,7.9,0.1,15.8,0.1,23.6c0,3.2,1.1,5.6,3.8,7.5c4.5,3.1,6.7,7.5,6.7,13c0.1,7.2,0.1,14.5,0.1,21.7c0,4.3,0.2,8.7-0.4,12.9
		c-1.9,13.2-15.3,15.2-22.2,10.3c-3.7-2.6-5.4-6.3-6-10.7c-0.2-1.3-0.2-2.7-0.2-4.1c0-10.3-0.1-20.6,0-31c0-3.4,0.7-6.5,3.1-9.1
		c0.8-0.8,1.7-1.7,2.7-2.2c3.9-2.1,5.6-5,3.9-11.1c-3.7-0.1-7.4-0.2-11.2-0.2c-6.4,0-12.8,0-19.2,0c-1.3,0-2.7-0.1-3.9-0.3
		c-6.6-1.4-9.8-7.2-7.4-13.6c1.3-3.4,2.9-6.7,4.4-10c10.7-23.2,21.4-46.5,32.2-69.7c2.8-6.1,9-8.3,14.7-5.4c2.4,1.3,3.9,3.3,5,5.8
		c5.5,11.8,10.9,23.6,16.4,35.4c6.4,13.9,12.8,27.9,19.2,41.8c1,2.2,1.7,4.5,1.5,7c-0.4,4.8-3.6,8.1-8.7,8.8
		c-2.3,0.3-4.6,0.4-6.9,0.4c-4.5,0-9,0-13.4-0.1c-0.9,0-1.9-0.2-2.8-0.5c-2.2-0.8-2.7-3.2-1.1-4.8c1.4-1.5,3.1-2.3,5.2-2.3
		c4.6,0,9.2,0,13.8,0c1.2,0,2.5-0.1,3.7-0.3c2-0.3,2.7-1.4,2.2-3.3c-0.5-1.6-1.2-3.2-2-4.8c-11.2-24.2-22.3-48.3-33.5-72.5
		c-0.6-1.4-1.5-2.4-2.8-3.2c-0.7-0.4-1.4-0.4-1.9,0.2c-0.8,1-1.6,2.1-2.2,3.2c-8.9,19.2-17.8,38.3-26.6,57.5
		c-2.7,5.8-5.3,11.5-8,17.3c-0.3,0.7-0.6,1.4-0.8,2.1c-0.5,1.8,0.3,3,2.1,3.3c1.1,0.2,2.3,0.2,3.5,0.2c9.4,0,18.8,0,28.2,0
		C146.8,191,147.1,191,147.6,191z M158.3,238.1C158.3,238.1,158.4,238.1,158.3,238.1c0.1-4.8,0.2-9.6,0-14.4c0-1.8-0.4-3.7-1-5.4
		c-0.9-2.5-3-3.7-5.6-3.7c-2.5,0-4.6,1.2-5.6,3.6c-0.5,1.3-0.9,2.8-0.9,4.2c-0.1,8.2,0,16.5,0,24.7c0,2.9-0.1,5.7,0,8.6
		c0.1,3.2,2,5.3,5.4,5.9c3.1,0.6,5.8-0.9,6.9-3.8c0.5-1.3,0.7-2.8,0.8-4.2C158.4,248.4,158.3,243.3,158.3,238.1z"/>
	<path d="M295.6,216c-0.5,4.4-0.8,8.8-1.6,13c-1.2,6.1-4.7,9.3-10.9,10.3c-4.3,0.7-8.4,0.2-12.3-1.9c-3.2-1.7-5.4-4.4-6.2-8
		c-1.7-7.4-6.4-11.9-13.5-13.9c-7.9-2.2-11.9-7.9-13.6-15.5c-0.5-2.1-0.2-4.4-0.1-6.7c0.1-1.5,1.2-2.5,2.4-3.2
		c0.4-0.2,1-0.3,1.5-0.2c1.8,0.5,3.4,1.5,3.8,3.4c0.5,2.2,0.8,4.4,1.1,6.6c0.8,4.9,3.2,7.5,8,8.6c3.1,0.7,6,1.8,8.7,3.6
		c4.2,2.9,6.6,7,8.1,11.8c0.5,1.6,1.1,3.3,2,4.7c1.7,2.5,4.2,3.4,7.2,3.1c3.2-0.3,5.6-1.9,6.8-4.9c0.6-1.5,0.9-3.2,1-4.9
		c0.1-3.1,0-6.2,0.1-9.3c0-1.4,0.5-2.6,1.6-3.6c2-1.6,3.4-1.5,5.1,0.4c0.4,0.4,0.6,1.1,0.7,1.7c0.1,1.6,0,3.3,0,4.9
		C295.5,216,295.6,216,295.6,216z"/>
	<path d="M92,158.9c0.9,1,1.8,2,2.5,3.1c0.4,0.5,0.6,1.4,0.5,2c-0.6,5.1-1.3,10.1-3.2,14.9c-2,4.9-5.8,7.5-10.9,8.1
		c-1,0.1-2.1,0.1-3.1,0.3c-3.9,0.6-6.5,2.9-7.9,6.6c-0.7,1.8-1.1,3.7-1.8,5.5c-2.4,6.1-6.5,10.3-13.2,11.3
		c-9.5,1.5-18.2-5.7-18.7-15.3c-0.1-2.7-0.1-5.4,0-8c0-2.3,1.1-3.3,3.1-3.5c2.6-0.2,4.1,0.7,4.4,3c0.2,1.7,0,3.4,0.2,5
		c0.2,2,0.4,4,1,5.9c1.1,3.3,3.9,5,7.7,5c4,0,6.9-1.9,8.1-5.4c0.5-1.5,0.8-3,1.2-4.5c2.4-8.5,7.8-12.9,16.6-13.5
		c4.3-0.3,6.9-2.7,7.7-7.2c0.3-1.9,0.5-3.8,0.7-5.7c0.2-2.7,1.3-4.8,3.6-6.3C90.9,159.8,91.4,159.3,92,158.9z"/>
	<path fill="none" d="M162.1,15.5c0,17.6,0,35.1,0,52.6c-31.8,0-63.5,0-95.3,0c0-17.5,0-35,0-52.6C98.5,15.5,130.2,15.5,162.1,15.5z
		"/>
	<path fill="none" d="M170.7,67.9c0-17.4,0-34.8,0-52.3c31.8,0,63.5,0,95.4,0c0,17.4,0,34.8,0,52.3
		C234.3,67.9,202.6,67.9,170.7,67.9z"/>
	<path fill="none" d="M318.2,76.8c0,17.5,0,34.9,0,52.3c-31.8,0-63.5,0-95.4,0c0-17.4,0-34.8,0-52.3
		C254.6,76.8,286.4,76.8,318.2,76.8z"/>
	<path fill="none" d="M216.6,137.8c34,0,67.8,0,101.5,0c0,19.3,0,38.6,0,58.2c-1.1-1.3-2.1-2.3-3-3.4c-4.9-6.2-10.6-11.5-17.6-15.4
		c-8.1-4.5-16.9-6.6-26.2-6.7c-5.6-0.1-11.2,0-16.7-1.1c-10.5-2.1-19.3-7.2-26-15.6C224.6,148.7,220.8,143.3,216.6,137.8z"/>
	<path fill="none" d="M109.9,76.7c0,8.4,0,16.7,0,25.1c-4,0.8-8,1.7-11.9,2.5c-7.9,1.6-15.8,2.6-23.9,2.7c-10.7,0.2-21-1.7-31-5.3
		c-2.7-1-5.6-1.7-8.4-2.3c-4.4-0.9-8.6,0.4-12.6,2.1c-2.5,1-4.9,2.2-7.4,3.3c0-9.4,0-18.7,0-28.1C46.4,76.7,78.1,76.7,109.9,76.7z"
		/>
	<path fill="none" d="M58.4,68.1c-14.6,0-29.1,0-43.7,0c-0.1-1.4-0.3-2.8-0.3-4.1c-0.1-10.4-0.1-20.9-0.1-31.3c0-4.4,0-8.9,0-13.3
		c0-3.3,1.1-4.5,4.5-4.5c6.2,0,12.3,0.1,18.5,0.1c5.7,0,11.4,0,17.1-0.1c0.4,0,0.7,0,1.1,0c2.3,0.2,3.1,1,3.1,3.4c0,3.2,0,6.5,0,9.7
		c0,12.8,0,25.7,0,38.5C58.4,67,58.4,67.5,58.4,68.1z"/>
	<path fill="none" d="M274.8,68.1c-0.1-1-0.4-2-0.4-3.1c0-15.4-0.1-30.7-0.1-46.1c0-0.3,0-0.6,0-1c0.1-2,1-3,3-3
		c6.6,0,13.2,0,19.8,0c1.5,0,3,0,4.4,0c4.4,0,8.9,0.1,13.3,0.1c1.7,0,3.4,1.7,3.5,3.3c0.1,2.5,0.1,5,0.1,7.4c0,13.7,0,27.4,0,41.1
		c0,0.3,0,0.6-0.1,1C304,68.1,289.5,68.1,274.8,68.1z"/>
	<path fill="none" d="M158.3,238.1c0,5.2,0.1,10.3,0,15.5c0,1.4-0.3,2.9-0.8,4.2c-1.1,2.9-3.8,4.4-6.9,3.8c-3.4-0.6-5.3-2.7-5.4-5.9
		c-0.1-2.9,0-5.7,0-8.6c0-8.2,0-16.5,0-24.7c0-1.4,0.4-2.9,0.9-4.2c1-2.4,3.1-3.6,5.6-3.6c2.6,0,4.7,1.2,5.6,3.7
		c0.6,1.7,0.9,3.6,1,5.4C158.5,228.5,158.4,233.3,158.3,238.1C158.4,238.1,158.3,238.1,158.3,238.1z"/>
</g>
</svg>
