<?xml version="1.0" encoding="UTF-8" standalone="no"?>
<svg
   xmlns:dc="http://purl.org/dc/elements/1.1/"
   xmlns:cc="http://creativecommons.org/ns#"
   xmlns:rdf="http://www.w3.org/1999/02/22-rdf-syntax-ns#"
   xmlns:svg="http://www.w3.org/2000/svg"
   xmlns="http://www.w3.org/2000/svg"
   xmlns:sodipodi="http://sodipodi.sourceforge.net/DTD/sodipodi-0.dtd"
   xmlns:inkscape="http://www.inkscape.org/namespaces/inkscape"
   inkscape:version="1.0 (4035a4fb49, 2020-05-01)"
   sodipodi:docname="logo.svg"
   viewBox="0, 0, 400,536"
   height="536"
   width="400"
   version="1.1"
   id="svg">
  <metadata
     id="metadata10">
    <rdf:RDF>
      <cc:Work
         rdf:about="">
        <dc:format>image/svg+xml</dc:format>
        <dc:type
           rdf:resource="http://purl.org/dc/dcmitype/StillImage" />
        <dc:title></dc:title>
      </cc:Work>
    </rdf:RDF>
  </metadata>
  <defs
     id="defs8" />
  <sodipodi:namedview
     inkscape:current-layer="svg"
     inkscape:window-maximized="1"
     inkscape:window-y="-8"
     inkscape:window-x="-8"
     inkscape:cy="268"
     inkscape:cx="200"
     inkscape:zoom="1.5858209"
     showgrid="false"
     id="namedview6"
     inkscape:window-height="1018"
     inkscape:window-width="1920"
     inkscape:pageshadow="2"
     inkscape:pageopacity="0"
     guidetolerance="10"
     gridtolerance="10"
     objecttolerance="10"
     borderopacity="1"
     bordercolor="#666666"
     pagecolor="#ffffff" />
  <g
     id="svgg">
    <path
       fill-rule="evenodd"
       fill="#5a5539"
       stroke="none"
       d="M200.728 118.301 C 199.998 118.919,198.725 119.924,197.900 120.533 C 197.075 121.142,196.400 121.839,196.400 122.082 C 196.400 122.324,195.545 123.460,194.500 124.606 C 193.455 125.752,192.150 127.358,191.600 128.174 C 191.050 128.990,190.223 130.050,189.763 130.529 C 189.303 131.008,188.332 132.480,187.605 133.800 C 186.879 135.120,185.978 136.416,185.604 136.679 C 185.231 136.942,184.615 138.022,184.236 139.079 C 183.358 141.531,182.437 143.240,181.584 144.000 C 181.214 144.330,180.408 146.179,179.794 148.110 C 179.179 150.040,178.260 152.104,177.751 152.696 C 177.242 153.289,176.723 154.319,176.597 154.987 C 175.905 158.666,174.632 163.138,173.690 165.200 C 170.110 173.032,170.368 213.098,174.020 216.400 C 174.483 216.819,175.568 220.326,176.180 223.383 C 176.530 225.134,177.140 226.934,177.534 227.383 C 178.697 228.706,179.600 230.320,179.606 231.086 C 179.617 232.474,180.859 235.358,181.797 236.174 C 182.320 236.628,183.247 238.170,183.858 239.600 C 184.468 241.030,185.273 242.423,185.645 242.696 C 186.018 242.968,187.063 244.363,187.968 245.796 C 188.872 247.228,189.761 248.400,189.944 248.400 C 190.126 248.400,190.888 249.301,191.637 250.403 C 192.387 251.504,193.270 252.499,193.600 252.613 C 193.930 252.726,194.806 253.625,195.547 254.610 C 196.287 255.594,197.046 256.400,197.233 256.400 C 197.420 256.400,198.125 256.940,198.799 257.599 C 201.848 260.579,203.641 260.363,207.000 256.610 C 207.880 255.626,209.455 253.908,210.500 252.792 C 211.545 251.675,212.400 250.583,212.400 250.365 C 212.400 250.147,213.112 249.249,213.983 248.370 C 214.853 247.491,216.052 245.878,216.646 244.786 C 217.241 243.694,217.871 242.800,218.047 242.800 C 218.492 242.800,220.250 239.639,220.570 238.263 C 220.715 237.637,221.437 236.505,222.174 235.746 C 222.910 234.987,223.610 233.969,223.729 233.483 C 224.635 229.775,224.966 228.900,226.008 227.446 C 227.172 225.821,228.064 223.321,228.592 220.200 C 228.741 219.320,229.410 217.520,230.078 216.200 C 231.394 213.602,231.774 211.764,232.399 205.000 C 232.938 199.172,233.523 194.676,234.082 192.080 C 234.532 189.986,234.393 188.313,233.197 181.400 C 233.007 180.300,232.731 177.152,232.585 174.405 C 232.239 167.917,231.343 163.681,229.701 160.772 C 229.257 159.987,228.769 158.547,228.616 157.572 C 228.286 155.480,226.893 151.254,226.251 150.400 C 225.410 149.282,224.903 148.178,224.605 146.821 C 224.240 145.159,222.797 142.393,221.658 141.170 C 221.191 140.669,220.706 139.886,220.579 139.429 C 220.141 137.846,219.413 136.593,218.209 135.353 C 217.544 134.668,216.479 133.085,215.842 131.836 C 215.205 130.588,214.352 129.388,213.946 129.171 C 213.540 128.954,212.916 128.210,212.558 127.519 C 212.200 126.827,211.035 125.375,209.968 124.291 C 208.901 123.207,207.930 122.010,207.810 121.631 C 207.690 121.253,206.874 120.539,205.996 120.046 C 205.119 119.553,203.874 118.706,203.229 118.163 L 202.056 117.176 200.728 118.301 M203.672 136.900 C 205.181 138.377,207.336 141.091,207.528 141.756 C 207.879 142.970,209.739 146.400,210.047 146.400 C 210.481 146.400,212.251 150.009,212.604 151.616 C 212.747 152.267,213.007 152.800,213.183 152.800 C 213.679 152.800,215.483 156.738,216.207 159.400 C 216.565 160.720,217.194 162.433,217.602 163.206 C 218.525 164.952,219.428 167.695,219.773 169.800 C 219.918 170.680,220.310 173.020,220.646 175.000 C 222.612 186.607,222.555 194.210,220.408 206.400 C 219.419 212.020,218.715 214.434,217.619 215.974 C 217.206 216.553,216.738 217.721,216.579 218.570 C 216.147 220.875,214.952 223.932,213.805 225.664 C 213.246 226.509,212.419 228.137,211.968 229.281 C 211.517 230.424,210.573 231.999,209.869 232.780 C 209.166 233.561,208.335 234.974,208.024 235.919 C 207.144 238.597,202.344 243.429,201.497 242.491 C 201.154 242.111,199.957 240.819,198.837 239.621 C 197.717 238.423,196.800 237.280,196.800 237.081 C 196.800 236.268,195.370 233.705,194.137 232.310 C 193.413 231.491,192.697 230.321,192.547 229.710 C 192.075 227.791,190.932 225.444,189.888 224.246 C 189.294 223.565,188.606 221.956,188.208 220.320 C 187.633 217.955,186.957 216.256,185.208 212.784 C 185.038 212.445,184.774 211.185,184.621 209.984 C 184.469 208.783,184.067 206.360,183.728 204.600 C 183.388 202.840,182.961 200.590,182.779 199.600 C 181.990 195.316,182.455 181.497,183.579 175.800 C 183.796 174.700,184.183 172.360,184.439 170.600 C 184.701 168.791,185.416 166.279,186.083 164.821 C 187.372 162.004,188.180 159.715,188.596 157.698 C 188.744 156.982,189.446 155.542,190.156 154.498 C 190.867 153.454,191.765 151.576,192.153 150.325 C 192.541 149.074,193.270 147.634,193.773 147.125 C 194.671 146.217,196.800 142.525,196.800 141.876 C 196.800 141.294,201.529 135.600,202.013 135.600 C 202.195 135.600,202.941 136.185,203.672 136.900 M100.351 161.034 C 99.303 161.476,98.587 162.218,97.759 163.722 L 96.614 165.800 96.628 183.800 C 96.641 201.354,96.663 201.843,97.494 203.521 C 97.963 204.467,98.909 208.157,99.595 211.721 C 100.732 217.624,101.360 219.847,102.047 220.400 C 102.358 220.650,104.400 226.713,104.400 227.385 C 104.400 227.657,104.967 228.663,105.661 229.620 C 106.354 230.577,107.362 232.445,107.901 233.771 C 108.439 235.096,109.215 236.416,109.625 236.703 C 110.036 236.990,110.945 238.434,111.646 239.913 C 112.346 241.391,113.448 243.044,114.094 243.587 C 114.740 244.129,115.523 245.064,115.833 245.663 C 116.495 246.944,125.769 256.400,126.363 256.400 C 126.586 256.400,127.451 257.076,128.285 257.902 C 129.118 258.728,130.485 259.763,131.322 260.202 C 132.159 260.641,133.778 261.765,134.919 262.700 C 136.060 263.635,137.269 264.400,137.604 264.400 C 137.940 264.400,138.841 264.822,139.607 265.338 C 142.043 266.980,144.804 268.400,145.559 268.400 C 145.961 268.400,147.668 269.109,149.352 269.975 C 151.036 270.842,153.716 271.860,155.307 272.238 C 156.898 272.616,158.925 273.259,159.812 273.666 C 164.030 275.601,172.979 277.595,177.465 277.598 C 178.600 277.599,181.434 278.050,183.761 278.600 C 189.282 279.904,214.660 280.144,219.268 278.936 C 225.575 277.281,228.463 279.805,226.207 285.000 C 225.244 287.218,225.118 287.784,224.563 292.400 C 224.259 294.930,223.843 298.167,223.638 299.593 C 222.934 304.490,223.488 304.833,235.000 306.619 C 236.980 306.926,239.680 307.351,241.000 307.563 C 242.320 307.775,245.110 308.153,247.200 308.404 C 251.051 308.865,252.052 309.105,256.000 310.507 C 257.210 310.937,259.190 311.438,260.400 311.621 C 265.299 312.362,268.995 313.220,270.749 314.024 C 274.013 315.520,275.122 315.862,279.200 316.634 C 279.970 316.780,281.730 317.507,283.110 318.250 C 284.491 318.992,285.965 319.600,286.386 319.600 C 286.808 319.600,287.264 319.780,287.400 320.000 C 287.536 320.220,287.990 320.400,288.410 320.400 C 289.349 320.400,292.926 321.586,293.200 321.988 C 293.471 322.387,295.773 323.406,298.200 324.202 C 299.300 324.563,300.740 325.191,301.400 325.598 C 305.531 328.145,307.048 327.839,307.877 324.292 C 308.953 319.688,308.171 316.225,305.780 315.006 C 305.342 314.783,304.447 314.222,303.792 313.759 C 303.136 313.296,300.800 312.330,298.600 311.612 C 296.400 310.894,294.510 310.192,294.400 310.052 C 294.032 309.586,292.217 308.818,290.600 308.445 C 288.640 307.993,283.874 306.294,283.600 305.949 C 283.297 305.568,279.845 304.550,275.600 303.588 C 273.510 303.114,270.988 302.314,269.996 301.809 C 269.003 301.305,266.933 300.675,265.396 300.409 C 257.081 298.972,254.306 298.404,253.800 298.033 C 252.784 297.289,249.402 296.659,241.000 295.648 C 236.429 295.098,236.265 294.545,237.545 284.000 C 238.454 276.516,240.803 274.276,249.920 272.202 C 251.525 271.836,254.045 270.941,255.520 270.213 C 256.994 269.484,259.100 268.572,260.200 268.186 C 261.300 267.800,263.034 266.881,264.054 266.142 C 265.073 265.404,266.028 264.800,266.176 264.800 C 266.885 264.800,270.134 263.060,271.295 262.059 C 272.013 261.440,273.230 260.588,274.000 260.166 C 274.770 259.745,275.994 258.815,276.719 258.100 C 277.445 257.385,278.222 256.800,278.446 256.800 C 279.390 256.800,288.443 247.621,289.254 245.842 C 289.511 245.277,290.054 244.710,290.461 244.581 C 290.867 244.452,291.200 244.191,291.200 244.002 C 291.200 243.812,291.425 243.416,291.700 243.121 C 291.975 242.827,292.550 241.959,292.979 241.193 C 293.407 240.427,294.172 239.472,294.679 239.071 C 295.185 238.670,295.600 238.117,295.600 237.842 C 295.600 237.053,297.843 232.628,298.533 232.055 C 298.876 231.771,299.441 230.607,299.790 229.469 C 301.293 224.558,301.753 223.355,302.413 222.600 C 303.151 221.757,303.713 219.746,304.591 214.800 C 304.884 213.150,305.607 210.450,306.197 208.800 C 308.027 203.683,308.697 169.844,307.097 163.401 C 306.336 160.338,301.755 159.382,297.978 161.498 C 296.752 162.185,293.069 163.403,288.118 164.760 C 287.193 165.014,286.198 165.459,285.908 165.749 C 285.428 166.229,283.905 166.986,281.200 168.090 C 279.471 168.795,277.815 169.731,277.400 170.238 C 277.180 170.507,276.010 171.228,274.800 171.841 C 273.590 172.453,271.893 173.550,271.028 174.277 C 270.163 175.005,269.218 175.600,268.928 175.600 C 268.638 175.600,268.400 175.780,268.400 176.000 C 268.400 176.220,268.175 176.401,267.900 176.402 C 267.625 176.404,266.429 177.300,265.241 178.394 C 264.054 179.488,262.749 180.489,262.341 180.619 C 261.934 180.748,261.600 181.003,261.600 181.186 C 261.600 181.369,260.862 182.212,259.961 183.059 C 257.010 185.832,256.612 186.225,255.542 187.419 C 254.961 188.069,254.132 188.870,253.701 189.200 C 253.270 189.530,252.691 190.231,252.414 190.758 C 252.137 191.284,251.230 192.454,250.399 193.358 C 249.568 194.261,248.499 195.748,248.023 196.662 C 247.547 197.577,246.646 198.861,246.020 199.516 C 245.394 200.171,244.577 201.403,244.205 202.254 C 243.111 204.755,242.295 206.180,241.781 206.492 C 241.359 206.748,240.716 208.195,239.089 212.553 C 238.853 213.187,238.245 214.198,237.739 214.800 C 237.163 215.484,236.576 217.074,236.169 219.047 C 235.452 222.534,235.036 223.623,233.743 225.400 C 233.263 226.060,232.752 227.500,232.608 228.600 C 232.080 232.617,230.649 239.395,229.990 241.000 C 229.682 241.750,228.813 248.290,228.092 255.281 C 227.517 260.863,229.135 262.155,235.132 260.898 C 239.651 259.951,240.077 259.091,240.730 249.600 C 240.934 246.630,241.296 243.570,241.534 242.800 C 243.258 237.229,243.569 235.953,244.364 231.200 C 244.729 229.020,245.376 227.316,246.720 225.000 C 247.573 223.528,248.260 221.518,248.634 219.400 C 248.789 218.520,249.025 217.710,249.160 217.600 C 250.047 216.875,251.612 214.263,252.164 212.586 C 253.066 209.849,253.620 208.848,254.364 208.611 C 254.714 208.500,255.509 207.328,256.132 206.008 C 256.755 204.688,257.657 203.291,258.138 202.904 C 258.618 202.517,259.633 201.210,260.392 200.000 C 261.151 198.790,262.049 197.631,262.386 197.425 C 262.724 197.219,263.450 196.511,264.000 195.852 C 265.818 193.672,270.176 189.528,271.630 188.595 C 272.416 188.091,273.766 187.007,274.630 186.187 C 275.493 185.367,276.830 184.362,277.600 183.954 C 278.370 183.546,279.630 182.669,280.400 182.007 C 281.170 181.344,281.980 180.801,282.200 180.799 C 282.856 180.795,286.074 179.053,287.960 177.680 C 288.928 176.976,290.008 176.397,290.360 176.394 C 290.712 176.391,291.712 176.140,292.581 175.838 C 294.517 175.164,294.913 175.298,295.782 176.923 C 297.244 179.654,295.920 203.141,294.072 207.274 C 293.647 208.223,293.099 209.900,292.854 211.000 C 291.481 217.165,291.047 218.694,290.413 219.600 C 289.501 220.903,288.600 222.910,287.802 225.420 C 287.449 226.532,286.649 228.040,286.025 228.771 C 285.400 229.503,284.464 231.012,283.945 232.126 C 283.425 233.239,282.455 234.702,281.788 235.375 C 281.121 236.049,280.246 237.237,279.842 238.016 C 279.439 238.795,278.499 239.831,277.754 240.320 C 277.009 240.808,276.400 241.400,276.400 241.634 C 276.400 242.180,274.194 244.400,273.651 244.400 C 273.425 244.400,272.763 245.027,272.178 245.793 C 271.594 246.559,270.327 247.580,269.363 248.061 C 268.399 248.543,267.519 249.224,267.408 249.574 C 267.297 249.925,266.079 250.826,264.703 251.576 C 263.326 252.327,261.493 253.539,260.628 254.270 C 259.763 255.002,258.739 255.600,258.352 255.600 C 257.964 255.600,257.536 255.780,257.400 256.000 C 257.264 256.220,256.848 256.405,256.476 256.410 C 256.104 256.416,254.830 257.039,253.644 257.794 C 252.458 258.550,250.208 259.553,248.644 260.023 C 245.199 261.058,243.600 261.705,243.600 262.064 C 243.600 262.384,240.293 263.188,237.200 263.622 C 233.574 264.130,231.087 264.855,230.425 265.596 C 229.794 266.302,227.920 266.559,212.569 268.038 C 203.397 268.922,180.167 267.480,179.667 265.996 C 179.593 265.778,179.323 265.594,179.067 265.587 C 177.090 265.530,176.641 264.198,176.331 257.466 C 175.959 249.399,174.549 239.121,173.536 237.101 C 173.123 236.277,172.690 234.747,172.575 233.701 C 171.965 228.199,171.356 226.049,169.770 223.800 C 169.299 223.133,168.639 221.112,168.284 219.249 C 167.806 216.744,167.278 215.344,166.191 213.707 C 165.391 212.502,164.636 210.901,164.514 210.148 C 164.392 209.396,164.136 208.684,163.946 208.567 C 163.756 208.449,163.600 208.036,163.600 207.648 C 163.600 207.261,162.997 206.237,162.260 205.372 C 161.523 204.507,160.710 203.158,160.454 202.374 C 160.197 201.590,159.363 200.330,158.600 199.574 C 157.837 198.818,156.832 197.431,156.366 196.490 C 155.900 195.550,154.817 194.028,153.960 193.108 C 153.102 192.188,152.400 191.314,152.400 191.166 C 152.400 190.812,142.027 180.401,141.672 180.398 C 141.523 180.397,140.770 179.765,140.000 178.994 C 139.230 178.224,137.610 176.945,136.400 176.154 C 135.190 175.362,133.750 174.297,133.200 173.788 C 132.650 173.278,131.390 172.541,130.400 172.150 C 129.410 171.758,128.420 171.291,128.200 171.111 C 127.980 170.932,127.350 170.407,126.800 169.945 C 125.740 169.054,122.666 167.600,121.843 167.600 C 121.574 167.600,120.332 166.985,119.083 166.233 C 117.835 165.482,116.263 164.746,115.591 164.598 C 113.499 164.139,108.277 162.409,106.600 161.621 C 104.264 160.522,102.055 160.315,100.351 161.034 M113.982 176.400 C 114.551 176.400,118.140 178.475,118.800 179.186 C 119.020 179.423,120.109 179.933,122.700 181.013 C 123.635 181.403,124.400 181.855,124.400 182.019 C 124.400 182.183,125.345 182.916,126.500 183.648 C 127.655 184.381,129.230 185.579,130.000 186.310 C 130.770 187.042,132.165 188.098,133.100 188.658 C 134.035 189.218,134.800 189.818,134.800 189.991 C 134.800 190.456,137.283 192.800,137.776 192.801 C 138.009 192.801,138.810 193.697,139.556 194.792 C 140.302 195.886,141.238 196.885,141.634 197.011 C 142.031 197.137,142.904 198.131,143.574 199.219 C 144.244 200.308,145.327 201.759,145.982 202.444 C 146.636 203.129,147.567 204.506,148.050 205.503 C 148.533 206.501,149.529 207.937,150.264 208.693 C 150.999 209.450,151.600 210.308,151.600 210.601 C 151.600 211.564,153.085 214.577,154.163 215.800 C 154.745 216.460,155.326 217.450,155.454 218.000 C 155.583 218.550,155.938 219.771,156.244 220.714 C 156.550 221.657,156.800 222.619,156.800 222.852 C 156.800 223.086,157.173 223.800,157.628 224.440 C 158.084 225.080,158.635 226.187,158.853 226.902 C 159.697 229.668,160.319 232.281,160.591 234.200 C 160.747 235.300,161.000 236.380,161.154 236.600 C 162.461 238.473,163.546 245.023,164.258 255.340 C 164.663 261.213,163.328 263.686,160.646 262.029 C 159.920 261.580,157.837 260.680,156.019 260.030 C 154.201 259.381,152.058 258.422,151.257 257.899 C 150.455 257.377,148.711 256.547,147.379 256.056 C 146.048 255.564,144.428 254.702,143.779 254.141 C 143.131 253.580,141.841 252.761,140.913 252.322 C 139.986 251.884,138.456 250.857,137.513 250.040 C 136.571 249.224,135.170 248.121,134.400 247.589 C 133.630 247.057,132.682 246.225,132.293 245.739 C 131.905 245.254,130.969 244.475,130.214 244.009 C 129.459 243.542,128.732 242.814,128.597 242.392 C 128.463 241.969,127.629 240.943,126.744 240.112 C 125.859 239.280,124.886 238.128,124.583 237.551 C 124.280 236.974,123.395 235.846,122.617 235.045 C 121.839 234.244,120.687 232.466,120.058 231.094 C 119.428 229.722,118.447 228.172,117.877 227.650 C 117.308 227.127,116.731 226.137,116.596 225.450 C 116.218 223.529,115.588 222.003,114.179 219.600 C 113.300 218.100,112.677 216.254,112.222 213.800 C 111.855 211.820,111.131 209.030,110.612 207.600 C 110.094 206.170,109.561 204.100,109.426 203.000 C 109.292 201.900,109.003 199.650,108.784 198.000 C 108.564 196.350,108.312 191.083,108.223 186.295 L 108.061 177.589 109.046 176.418 C 110.020 175.261,110.051 175.254,111.666 175.823 C 112.565 176.141,113.607 176.400,113.982 176.400 M168.089 280.316 C 166.375 281.930,166.160 283.592,167.231 286.960 C 167.434 287.598,167.600 289.505,167.600 291.198 C 167.600 294.974,167.196 295.454,163.800 295.705 C 157.825 296.146,151.800 297.201,150.600 298.016 C 150.003 298.421,142.171 300.079,138.456 300.585 C 137.498 300.716,135.968 301.186,135.056 301.628 C 133.129 302.565,130.305 303.345,125.049 304.391 C 123.756 304.649,121.686 305.382,120.449 306.022 C 119.212 306.661,116.580 307.581,114.600 308.067 C 112.620 308.552,110.373 309.366,109.607 309.875 C 108.841 310.384,107.984 310.800,107.702 310.800 C 107.420 310.800,106.877 310.962,106.495 311.161 C 106.113 311.360,104.990 311.738,104.000 312.003 C 97.605 313.710,95.242 317.387,96.429 323.782 C 97.165 327.746,98.121 327.766,105.295 323.968 C 105.677 323.766,106.268 323.600,106.609 323.600 C 106.949 323.600,108.587 322.880,110.248 322.000 C 111.909 321.120,113.645 320.400,114.106 320.400 C 115.297 320.400,117.372 319.693,120.600 318.187 C 122.140 317.469,124.678 316.588,126.240 316.229 C 127.802 315.870,130.502 315.019,132.240 314.337 C 135.079 313.223,137.396 312.675,143.800 311.600 C 145.865 311.253,148.300 310.501,149.000 309.994 C 149.697 309.489,153.229 308.842,158.800 308.199 C 161.770 307.855,164.740 307.416,165.400 307.222 C 166.060 307.028,167.590 306.757,168.800 306.619 C 179.993 305.344,181.411 304.327,180.534 298.200 C 180.219 296.000,179.815 292.478,179.638 290.374 C 179.452 288.177,179.039 286.047,178.667 285.374 C 178.311 284.728,177.904 283.885,177.763 283.500 C 177.622 283.115,177.348 282.800,177.153 282.800 C 176.959 282.800,176.800 282.422,176.800 281.960 C 176.800 278.724,170.952 277.620,168.089 280.316 M112.049 370.697 C 109.228 370.892,108.615 371.601,107.181 376.320 C 106.894 377.267,106.329 378.420,105.927 378.884 C 105.216 379.704,103.600 384.450,103.600 385.720 C 103.600 386.068,103.420 386.464,103.200 386.600 C 102.980 386.736,102.800 387.155,102.800 387.531 C 102.800 387.907,102.384 388.841,101.876 389.607 C 101.369 390.373,100.628 392.170,100.230 393.600 C 99.176 397.388,98.478 399.150,97.694 399.993 C 97.312 400.404,96.670 401.969,96.266 403.470 C 95.402 406.685,94.425 409.134,93.632 410.076 C 93.046 410.772,91.620 414.931,91.601 416.000 C 91.595 416.330,91.031 417.680,90.349 419.000 C 89.666 420.320,88.773 422.475,88.364 423.788 L 87.620 426.177 88.685 427.288 C 89.617 428.261,90.049 428.400,92.140 428.400 C 96.941 428.400,99.677 425.599,100.596 419.740 C 100.873 417.979,101.987 416.528,104.473 414.689 L 105.947 413.600 113.849 413.600 C 125.897 413.600,127.347 414.169,128.576 419.376 C 128.728 420.022,129.246 421.100,129.727 421.770 C 130.832 423.312,131.596 424.761,131.613 425.346 C 131.693 428.058,136.986 429.304,140.265 427.383 C 142.180 426.261,142.245 426.130,141.450 424.989 C 141.148 424.555,140.770 423.421,140.610 422.470 C 140.292 420.578,138.884 416.890,137.664 414.756 C 137.237 414.010,136.771 412.680,136.628 411.800 C 136.293 409.741,135.743 408.318,134.232 405.600 C 133.559 404.390,132.689 402.140,132.298 400.600 C 131.907 399.060,130.981 396.810,130.239 395.600 C 129.498 394.390,128.764 392.590,128.608 391.600 C 128.452 390.610,127.555 388.180,126.615 386.200 C 125.675 384.220,124.780 381.970,124.628 381.200 C 123.916 377.611,122.723 375.217,120.353 372.624 C 118.106 370.166,118.476 370.252,112.049 370.697 M164.200 371.073 C 160.177 372.328,158.914 372.877,157.769 373.867 C 157.126 374.423,155.746 375.313,154.702 375.845 C 153.571 376.421,152.382 377.448,151.762 378.386 C 151.189 379.252,150.288 380.244,149.760 380.589 C 149.232 380.935,148.796 381.439,148.791 381.709 C 148.786 381.979,148.250 383.280,147.600 384.600 C 146.950 385.920,146.414 387.315,146.409 387.700 C 146.404 388.085,146.247 388.400,146.061 388.400 C 143.394 388.400,143.459 404.670,146.148 410.180 C 146.904 411.731,147.739 413.576,148.002 414.280 C 148.449 415.475,148.994 416.162,152.260 419.653 C 154.418 421.959,157.218 424.400,157.706 424.400 C 157.962 424.400,159.618 425.098,161.386 425.951 C 169.419 429.829,181.621 429.630,189.686 425.490 C 195.412 422.550,194.978 423.626,195.125 411.980 C 195.255 401.712,195.089 400.400,193.666 400.400 C 193.278 400.400,192.738 400.178,192.467 399.907 C 192.109 399.549,190.041 399.431,184.894 399.475 L 177.814 399.536 176.906 400.592 C 176.155 401.464,176.041 401.937,176.247 403.323 C 176.730 406.564,177.115 406.976,179.870 407.200 C 184.536 407.579,185.978 410.660,184.146 416.334 C 183.139 419.452,182.116 419.811,174.400 419.757 C 167.876 419.711,165.879 419.282,164.727 417.679 C 164.437 417.276,163.490 416.598,162.622 416.173 C 161.672 415.707,160.717 414.812,160.222 413.922 C 159.770 413.109,158.834 411.808,158.142 411.031 C 156.891 409.626,155.979 406.659,155.364 402.000 C 155.029 399.468,156.365 388.964,157.089 388.432 C 157.263 388.304,157.929 387.480,158.569 386.600 C 160.708 383.661,163.451 381.275,165.274 380.768 C 166.223 380.504,167.771 380.043,168.714 379.744 C 170.945 379.036,177.443 379.039,179.455 379.749 C 180.311 380.051,181.818 380.434,182.805 380.600 C 183.792 380.767,185.500 381.304,186.600 381.793 C 187.700 382.283,188.922 382.797,189.316 382.935 C 190.047 383.193,191.600 382.473,191.600 381.877 C 191.600 381.524,193.581 378.757,194.114 378.366 C 195.170 377.592,187.662 371.600,185.635 371.600 C 185.230 371.600,184.251 371.330,183.462 371.000 C 181.382 370.131,167.045 370.186,164.200 371.073 M209.000 370.647 C 204.511 371.759,204.800 369.728,204.800 400.113 C 204.800 421.696,204.896 426.381,205.344 426.753 C 207.506 428.548,213.753 428.938,215.315 427.376 L 216.340 426.351 216.470 416.246 C 216.623 404.370,216.571 404.529,220.174 404.979 C 221.956 405.202,222.475 405.460,223.258 406.510 C 223.776 407.205,224.699 408.272,225.310 408.882 C 225.920 409.493,227.018 410.986,227.750 412.201 C 228.482 413.416,229.603 414.993,230.240 415.705 C 230.878 416.417,231.695 417.639,232.055 418.420 C 232.800 420.034,236.255 424.900,237.721 426.400 C 240.443 429.184,248.306 428.944,248.729 426.063 C 248.865 425.135,247.727 423.043,245.985 421.022 C 245.406 420.350,244.588 419.189,244.166 418.442 C 243.745 417.695,242.821 416.461,242.114 415.700 C 241.406 414.940,240.708 413.942,240.563 413.482 C 240.417 413.023,239.781 412.096,239.151 411.423 C 238.520 410.751,238.003 410.078,238.002 409.929 C 238.001 409.779,237.775 409.411,237.500 409.110 C 234.676 406.022,234.976 401.445,238.052 400.673 C 239.182 400.389,243.376 395.814,244.048 394.132 C 244.296 393.509,244.590 390.725,244.701 387.945 C 244.996 380.568,244.325 378.600,240.543 375.734 C 239.914 375.258,238.950 374.470,238.400 373.983 C 235.647 371.547,231.446 370.800,219.400 370.604 C 214.120 370.518,209.440 370.537,209.000 370.647 M272.200 371.047 C 267.848 372.461,266.853 372.914,265.615 374.045 C 264.907 374.691,263.611 375.586,262.734 376.034 C 261.754 376.534,260.728 377.527,260.070 378.613 C 259.482 379.585,258.696 380.483,258.324 380.609 C 257.224 380.982,252.906 390.197,252.424 393.200 C 251.425 399.416,252.098 405.779,254.216 410.145 C 254.977 411.714,255.600 413.288,255.600 413.643 C 255.600 415.937,264.557 424.796,266.880 424.801 C 267.166 424.802,268.390 425.397,269.600 426.124 C 275.361 429.587,290.248 429.516,293.600 426.009 C 294.105 425.481,295.628 424.831,296.935 424.586 C 298.231 424.343,299.244 423.592,301.294 421.357 C 301.675 420.941,302.527 420.150,303.187 419.600 C 303.846 419.050,304.389 418.395,304.393 418.144 C 304.397 417.893,305.101 416.838,305.959 415.801 C 307.504 413.930,308.245 412.024,309.224 407.400 C 309.503 406.080,309.877 404.706,310.055 404.347 C 310.964 402.509,311.236 398.203,310.558 396.396 C 310.187 395.408,309.749 393.610,309.584 392.400 C 308.989 388.030,307.015 382.400,306.078 382.400 C 305.910 382.400,305.456 381.864,305.069 381.209 C 304.246 379.816,301.091 376.550,299.457 375.400 C 298.832 374.960,297.683 374.105,296.905 373.500 C 296.127 372.895,295.448 372.400,295.396 372.400 C 295.344 372.400,293.884 372.026,292.151 371.569 C 287.742 370.405,275.184 370.077,272.200 371.047 M222.620 377.947 C 223.202 378.478,226.817 379.600,227.945 379.600 C 230.406 379.600,233.057 381.772,234.535 385.000 C 235.155 386.353,234.872 391.051,234.143 391.525 C 233.910 391.676,233.232 392.579,232.636 393.530 C 231.575 395.224,229.139 396.771,227.500 396.791 C 227.115 396.796,226.800 396.936,226.800 397.103 C 226.800 397.712,223.534 398.400,220.639 398.400 L 217.666 398.400 217.001 396.659 C 215.995 394.023,216.258 380.304,217.346 378.700 C 218.117 377.564,221.648 377.059,222.620 377.947 M288.748 380.229 C 289.929 380.533,291.171 381.010,291.509 381.291 C 293.490 382.934,295.961 385.649,296.214 386.459 C 296.375 386.976,297.021 388.120,297.649 389.000 C 299.249 391.242,299.723 394.323,299.496 401.000 C 299.287 407.113,299.032 408.040,296.630 411.399 C 295.843 412.498,295.189 413.578,295.175 413.799 C 295.147 414.246,288.830 418.412,287.081 419.137 C 284.331 420.276,274.879 419.322,273.121 417.727 C 272.680 417.327,271.574 416.640,270.663 416.200 C 269.746 415.757,268.617 414.775,268.132 414.000 C 267.651 413.230,266.794 412.035,266.228 411.345 C 265.663 410.655,265.200 409.836,265.200 409.525 C 265.200 409.214,265.042 408.789,264.848 408.580 C 263.378 406.992,262.968 398.990,264.051 393.000 C 265.337 385.881,270.019 381.124,277.400 379.435 C 278.797 379.115,286.516 379.655,288.748 380.229 M116.389 387.039 C 116.395 387.280,116.783 387.910,117.251 388.439 C 118.241 389.557,119.189 391.612,119.634 393.600 C 120.527 397.596,121.524 400.400,122.051 400.400 C 122.550 400.400,122.777 402.229,122.535 404.300 L 122.290 406.400 115.599 406.400 L 108.909 406.400 108.196 404.533 C 107.601 402.977,107.556 402.362,107.920 400.833 C 108.160 399.825,108.468 398.370,108.604 397.600 C 108.872 396.074,109.618 393.918,109.987 393.600 C 110.950 392.769,111.763 390.606,112.596 386.658 C 112.728 386.030,113.120 385.083,113.467 384.553 L 114.099 383.590 115.238 385.095 C 115.865 385.923,116.383 386.797,116.389 387.039 "
       id="path0" />
    <path
       fill-rule="evenodd"
       fill="#fcdc5c"
       stroke="none"
       d="M0.000 268.000 L 0.000 536.000 200.000 536.000 L 400.000 536.000 400.000 268.000 L 400.000 0.000 200.000 0.000 L 0.000 0.000 0.000 268.000 M205.996 120.046 C 206.874 120.539,207.690 121.253,207.810 121.631 C 207.930 122.010,208.901 123.207,209.968 124.291 C 211.035 125.375,212.200 126.827,212.558 127.519 C 212.916 128.210,213.540 128.954,213.946 129.171 C 214.352 129.388,215.205 130.588,215.842 131.836 C 216.479 133.085,217.544 134.668,218.209 135.353 C 219.413 136.593,220.141 137.846,220.579 139.429 C 220.706 139.886,221.191 140.669,221.658 141.170 C 222.797 142.393,224.240 145.159,224.605 146.821 C 224.903 148.178,225.410 149.282,226.251 150.400 C 226.893 151.254,228.286 155.480,228.616 157.572 C 228.769 158.547,229.257 159.987,229.701 160.772 C 231.343 163.681,232.239 167.917,232.585 174.405 C 232.731 177.152,233.007 180.300,233.197 181.400 C 234.393 188.313,234.532 189.986,234.082 192.080 C 233.523 194.676,232.938 199.172,232.399 205.000 C 231.774 211.764,231.394 213.602,230.078 216.200 C 229.410 217.520,228.741 219.320,228.592 220.200 C 228.064 223.321,227.172 225.821,226.008 227.446 C 224.966 228.900,224.635 229.775,223.729 233.483 C 223.610 233.969,222.910 234.987,222.174 235.746 C 221.437 236.505,220.715 237.637,220.570 238.263 C 220.250 239.639,218.492 242.800,218.047 242.800 C 217.871 242.800,217.241 243.694,216.646 244.786 C 216.052 245.878,214.853 247.491,213.983 248.370 C 213.112 249.249,212.400 250.147,212.400 250.365 C 212.400 250.583,211.545 251.675,210.500 252.792 C 209.455 253.908,207.880 255.626,207.000 256.610 C 203.641 260.363,201.848 260.579,198.799 257.599 C 198.125 256.940,197.420 256.400,197.233 256.400 C 197.046 256.400,196.287 255.594,195.547 254.610 C 194.806 253.625,193.930 252.726,193.600 252.613 C 193.270 252.499,192.387 251.504,191.637 250.403 C 190.888 249.301,190.126 248.400,189.944 248.400 C 189.761 248.400,188.872 247.228,187.968 245.796 C 187.063 244.363,186.018 242.968,185.645 242.696 C 185.273 242.423,184.468 241.030,183.858 239.600 C 183.247 238.170,182.320 236.628,181.797 236.174 C 180.859 235.358,179.617 232.474,179.606 231.086 C 179.600 230.320,178.697 228.706,177.534 227.383 C 177.140 226.934,176.530 225.134,176.180 223.383 C 175.568 220.326,174.483 216.819,174.020 216.400 C 170.368 213.098,170.110 173.032,173.690 165.200 C 174.632 163.138,175.905 158.666,176.597 154.987 C 176.723 154.319,177.242 153.289,177.751 152.696 C 178.260 152.104,179.179 150.040,179.794 148.110 C 180.408 146.179,181.214 144.330,181.584 144.000 C 182.437 143.240,183.358 141.531,184.236 139.079 C 184.615 138.022,185.231 136.942,185.604 136.679 C 185.978 136.416,186.879 135.120,187.605 133.800 C 188.332 132.480,189.303 131.008,189.763 130.529 C 190.223 130.050,191.050 128.990,191.600 128.174 C 192.150 127.358,193.455 125.752,194.500 124.606 C 195.545 123.460,196.400 122.324,196.400 122.082 C 196.400 121.839,197.075 121.142,197.900 120.533 C 198.725 119.924,199.998 118.919,200.728 118.301 L 202.056 117.176 203.229 118.163 C 203.874 118.706,205.119 119.553,205.996 120.046 M200.541 136.961 C 197.973 140.022,196.800 141.564,196.800 141.876 C 196.800 142.525,194.671 146.217,193.773 147.125 C 193.270 147.634,192.541 149.074,192.153 150.325 C 191.765 151.576,190.867 153.454,190.156 154.498 C 189.446 155.542,188.744 156.982,188.596 157.698 C 188.180 159.715,187.372 162.004,186.083 164.821 C 185.416 166.279,184.701 168.791,184.439 170.600 C 184.183 172.360,183.796 174.700,183.579 175.800 C 182.455 181.497,181.990 195.316,182.779 199.600 C 182.961 200.590,183.388 202.840,183.728 204.600 C 184.067 206.360,184.469 208.783,184.621 209.984 C 184.774 211.185,185.038 212.445,185.208 212.784 C 186.957 216.256,187.633 217.955,188.208 220.320 C 188.606 221.956,189.294 223.565,189.888 224.246 C 190.932 225.444,192.075 227.791,192.547 229.710 C 192.697 230.321,193.413 231.491,194.137 232.310 C 195.370 233.705,196.800 236.268,196.800 237.081 C 196.800 237.280,197.717 238.423,198.837 239.621 C 199.957 240.819,201.154 242.111,201.497 242.491 C 202.344 243.429,207.144 238.597,208.024 235.919 C 208.335 234.974,209.166 233.561,209.869 232.780 C 210.573 231.999,211.517 230.424,211.968 229.281 C 212.419 228.137,213.246 226.509,213.805 225.664 C 214.952 223.932,216.147 220.875,216.579 218.570 C 216.738 217.721,217.206 216.553,217.619 215.974 C 218.715 214.434,219.419 212.020,220.408 206.400 C 222.555 194.210,222.612 186.607,220.646 175.000 C 220.310 173.020,219.918 170.680,219.773 169.800 C 219.428 167.695,218.525 164.952,217.602 163.206 C 217.194 162.433,216.565 160.720,216.207 159.400 C 215.483 156.738,213.679 152.800,213.183 152.800 C 213.007 152.800,212.747 152.267,212.604 151.616 C 212.251 150.009,210.481 146.400,210.047 146.400 C 209.739 146.400,207.879 142.970,207.528 141.756 C 207.189 140.579,202.727 135.600,202.013 135.600 C 201.831 135.600,201.169 136.212,200.541 136.961 M106.600 161.621 C 108.277 162.409,113.499 164.139,115.591 164.598 C 116.263 164.746,117.835 165.482,119.083 166.233 C 120.332 166.985,121.574 167.600,121.843 167.600 C 122.666 167.600,125.740 169.054,126.800 169.945 C 127.350 170.407,127.980 170.932,128.200 171.111 C 128.420 171.291,129.410 171.758,130.400 172.150 C 131.390 172.541,132.650 173.278,133.200 173.788 C 133.750 174.297,135.190 175.362,136.400 176.154 C 137.610 176.945,139.230 178.224,140.000 178.994 C 140.770 179.765,141.523 180.397,141.672 180.398 C 142.027 180.401,152.400 190.812,152.400 191.166 C 152.400 191.314,153.102 192.188,153.960 193.108 C 154.817 194.028,155.900 195.550,156.366 196.490 C 156.832 197.431,157.837 198.818,158.600 199.574 C 159.363 200.330,160.197 201.590,160.454 202.374 C 160.710 203.158,161.523 204.507,162.260 205.372 C 162.997 206.237,163.600 207.261,163.600 207.648 C 163.600 208.036,163.756 208.449,163.946 208.567 C 164.136 208.684,164.392 209.396,164.514 210.148 C 164.636 210.901,165.391 212.502,166.191 213.707 C 167.278 215.344,167.806 216.744,168.284 219.249 C 168.639 221.112,169.299 223.133,169.770 223.800 C 171.356 226.049,171.965 228.199,172.575 233.701 C 172.690 234.747,173.123 236.277,173.536 237.101 C 174.549 239.121,175.959 249.399,176.331 257.466 C 176.641 264.198,177.090 265.530,179.067 265.587 C 179.323 265.594,179.593 265.778,179.667 265.996 C 180.167 267.480,203.397 268.922,212.569 268.038 C 227.920 266.559,229.794 266.302,230.425 265.596 C 231.087 264.855,233.574 264.130,237.200 263.622 C 240.293 263.188,243.600 262.384,243.600 262.064 C 243.600 261.705,245.199 261.058,248.644 260.023 C 250.208 259.553,252.458 258.550,253.644 257.794 C 254.830 257.039,256.104 256.416,256.476 256.410 C 256.848 256.405,257.264 256.220,257.400 256.000 C 257.536 255.780,257.964 255.600,258.352 255.600 C 258.739 255.600,259.763 255.002,260.628 254.270 C 261.493 253.539,263.326 252.327,264.703 251.576 C 266.079 250.826,267.297 249.925,267.408 249.574 C 267.519 249.224,268.399 248.543,269.363 248.061 C 270.327 247.580,271.594 246.559,272.178 245.793 C 272.763 245.027,273.425 244.400,273.651 244.400 C 274.194 244.400,276.400 242.180,276.400 241.634 C 276.400 241.400,277.009 240.808,277.754 240.320 C 278.499 239.831,279.439 238.795,279.842 238.016 C 280.246 237.237,281.121 236.049,281.788 235.375 C 282.455 234.702,283.425 233.239,283.945 232.126 C 284.464 231.012,285.400 229.503,286.025 228.771 C 286.649 228.040,287.449 226.532,287.802 225.420 C 288.600 222.910,289.501 220.903,290.413 219.600 C 291.047 218.694,291.481 217.165,292.854 211.000 C 293.099 209.900,293.647 208.223,294.072 207.274 C 295.920 203.141,297.244 179.654,295.782 176.923 C 294.913 175.298,294.517 175.164,292.581 175.838 C 291.712 176.140,290.712 176.391,290.360 176.394 C 290.008 176.397,288.928 176.976,287.960 177.680 C 286.074 179.053,282.856 180.795,282.200 180.799 C 281.980 180.801,281.170 181.344,280.400 182.007 C 279.630 182.669,278.370 183.546,277.600 183.954 C 276.830 184.362,275.493 185.367,274.630 186.187 C 273.766 187.007,272.416 188.091,271.630 188.595 C 270.176 189.528,265.818 193.672,264.000 195.852 C 263.450 196.511,262.724 197.219,262.386 197.425 C 262.049 197.631,261.151 198.790,260.392 200.000 C 259.633 201.210,258.618 202.517,258.138 202.904 C 257.657 203.291,256.755 204.688,256.132 206.008 C 255.509 207.328,254.714 208.500,254.364 208.611 C 253.620 208.848,253.066 209.849,252.164 212.586 C 251.612 214.263,250.047 216.875,249.160 217.600 C 249.025 217.710,248.789 218.520,248.634 219.400 C 248.260 221.518,247.573 223.528,246.720 225.000 C 245.376 227.316,244.729 229.020,244.364 231.200 C 243.569 235.953,243.258 237.229,241.534 242.800 C 241.296 243.570,240.934 246.630,240.730 249.600 C 240.077 259.091,239.651 259.951,235.132 260.898 C 229.135 262.155,227.517 260.863,228.092 255.281 C 228.813 248.290,229.682 241.750,229.990 241.000 C 230.649 239.395,232.080 232.617,232.608 228.600 C 232.752 227.500,233.263 226.060,233.743 225.400 C 235.036 223.623,235.452 222.534,236.169 219.047 C 236.576 217.074,237.163 215.484,237.739 214.800 C 238.245 214.198,238.853 213.187,239.089 212.553 C 240.716 208.195,241.359 206.748,241.781 206.492 C 242.295 206.180,243.111 204.755,244.205 202.254 C 244.577 201.403,245.394 200.171,246.020 199.516 C 246.646 198.861,247.547 197.577,248.023 196.662 C 248.499 195.748,249.568 194.261,250.399 193.358 C 251.230 192.454,252.137 191.284,252.414 190.758 C 252.691 190.231,253.270 189.530,253.701 189.200 C 254.132 188.870,254.961 188.069,255.542 187.419 C 256.612 186.225,257.010 185.832,259.961 183.059 C 260.862 182.212,261.600 181.369,261.600 181.186 C 261.600 181.003,261.934 180.748,262.341 180.619 C 262.749 180.489,264.054 179.488,265.241 178.394 C 266.429 177.300,267.625 176.404,267.900 176.402 C 268.175 176.401,268.400 176.220,268.400 176.000 C 268.400 175.780,268.638 175.600,268.928 175.600 C 269.218 175.600,270.163 175.005,271.028 174.277 C 271.893 173.550,273.590 172.453,274.800 171.841 C 276.010 171.228,277.180 170.507,277.400 170.238 C 277.815 169.731,279.471 168.795,281.200 168.090 C 283.905 166.986,285.428 166.229,285.908 165.749 C 286.198 165.459,287.193 165.014,288.118 164.760 C 293.069 163.403,296.752 162.185,297.978 161.498 C 301.755 159.382,306.336 160.338,307.097 163.401 C 308.697 169.844,308.027 203.683,306.197 208.800 C 305.607 210.450,304.884 213.150,304.591 214.800 C 303.713 219.746,303.151 221.757,302.413 222.600 C 301.753 223.355,301.293 224.558,299.790 229.469 C 299.441 230.607,298.876 231.771,298.533 232.055 C 297.843 232.628,295.600 237.053,295.600 237.842 C 295.600 238.117,295.185 238.670,294.679 239.071 C 294.172 239.472,293.407 240.427,292.979 241.193 C 292.550 241.959,291.975 242.827,291.700 243.121 C 291.425 243.416,291.200 243.812,291.200 244.002 C 291.200 244.191,290.867 244.452,290.461 244.581 C 290.054 244.710,289.511 245.277,289.254 245.842 C 288.443 247.621,279.390 256.800,278.446 256.800 C 278.222 256.800,277.445 257.385,276.719 258.100 C 275.994 258.815,274.770 259.745,274.000 260.166 C 273.230 260.588,272.013 261.440,271.295 262.059 C 270.134 263.060,266.885 264.800,266.176 264.800 C 266.028 264.800,265.073 265.404,264.054 266.142 C 263.034 266.881,261.300 267.800,260.200 268.186 C 259.100 268.572,256.994 269.484,255.520 270.213 C 254.045 270.941,251.525 271.836,249.920 272.202 C 240.803 274.276,238.454 276.516,237.545 284.000 C 236.265 294.545,236.429 295.098,241.000 295.648 C 249.402 296.659,252.784 297.289,253.800 298.033 C 254.306 298.404,257.081 298.972,265.396 300.409 C 266.933 300.675,269.003 301.305,269.996 301.809 C 270.988 302.314,273.510 303.114,275.600 303.588 C 279.845 304.550,283.297 305.568,283.600 305.949 C 283.874 306.294,288.640 307.993,290.600 308.445 C 292.217 308.818,294.032 309.586,294.400 310.052 C 294.510 310.192,296.400 310.894,298.600 311.612 C 300.800 312.330,303.136 313.296,303.792 313.759 C 304.447 314.222,305.342 314.783,305.780 315.006 C 308.171 316.225,308.953 319.688,307.877 324.292 C 307.048 327.839,305.531 328.145,301.400 325.598 C 300.740 325.191,299.300 324.563,298.200 324.202 C 295.773 323.406,293.471 322.387,293.200 321.988 C 292.926 321.586,289.349 320.400,288.410 320.400 C 287.990 320.400,287.536 320.220,287.400 320.000 C 287.264 319.780,286.808 319.600,286.386 319.600 C 285.965 319.600,284.491 318.992,283.110 318.250 C 281.730 317.507,279.970 316.780,279.200 316.634 C 275.122 315.862,274.013 315.520,270.749 314.024 C 268.995 313.220,265.299 312.362,260.400 311.621 C 259.190 311.438,257.210 310.937,256.000 310.507 C 252.052 309.105,251.051 308.865,247.200 308.404 C 245.110 308.153,242.320 307.775,241.000 307.563 C 239.680 307.351,236.980 306.926,235.000 306.619 C 223.488 304.833,222.934 304.490,223.638 299.593 C 223.843 298.167,224.259 294.930,224.563 292.400 C 225.118 287.784,225.244 287.218,226.207 285.000 C 228.463 279.805,225.575 277.281,219.268 278.936 C 214.660 280.144,189.282 279.904,183.761 278.600 C 181.434 278.050,178.600 277.599,177.465 277.598 C 172.979 277.595,164.030 275.601,159.812 273.666 C 158.925 273.259,156.898 272.616,155.307 272.238 C 153.716 271.860,151.036 270.842,149.352 269.975 C 147.668 269.109,145.961 268.400,145.559 268.400 C 144.804 268.400,142.043 266.980,139.607 265.338 C 138.841 264.822,137.940 264.400,137.604 264.400 C 137.269 264.400,136.060 263.635,134.919 262.700 C 133.778 261.765,132.159 260.641,131.322 260.202 C 130.485 259.763,129.118 258.728,128.285 257.902 C 127.451 257.076,126.586 256.400,126.363 256.400 C 125.769 256.400,116.495 246.944,115.833 245.663 C 115.523 245.064,114.740 244.129,114.094 243.587 C 113.448 243.044,112.346 241.391,111.646 239.913 C 110.945 238.434,110.036 236.990,109.625 236.703 C 109.215 236.416,108.439 235.096,107.901 233.771 C 107.362 232.445,106.354 230.577,105.661 229.620 C 104.967 228.663,104.400 227.657,104.400 227.385 C 104.400 226.713,102.358 220.650,102.047 220.400 C 101.360 219.847,100.732 217.624,99.595 211.721 C 98.909 208.157,97.963 204.467,97.494 203.521 C 96.663 201.843,96.641 201.354,96.628 183.800 L 96.614 165.800 97.759 163.722 C 99.586 160.404,102.526 159.705,106.600 161.621 M109.046 176.418 L 108.061 177.589 108.223 186.295 C 108.312 191.083,108.564 196.350,108.784 198.000 C 109.003 199.650,109.292 201.900,109.426 203.000 C 109.561 204.100,110.094 206.170,110.612 207.600 C 111.131 209.030,111.855 211.820,112.222 213.800 C 112.677 216.254,113.300 218.100,114.179 219.600 C 115.588 222.003,116.218 223.529,116.596 225.450 C 116.731 226.137,117.308 227.127,117.877 227.650 C 118.447 228.172,119.428 229.722,120.058 231.094 C 120.687 232.466,121.839 234.244,122.617 235.045 C 123.395 235.846,124.280 236.974,124.583 237.551 C 124.886 238.128,125.859 239.280,126.744 240.112 C 127.629 240.943,128.463 241.969,128.597 242.392 C 128.732 242.814,129.459 243.542,130.214 244.009 C 130.969 244.475,131.905 245.254,132.293 245.739 C 132.682 246.225,133.630 247.057,134.400 247.589 C 135.170 248.121,136.571 249.224,137.513 250.040 C 138.456 250.857,139.986 251.884,140.913 252.322 C 141.841 252.761,143.131 253.580,143.779 254.141 C 144.428 254.702,146.048 255.564,147.379 256.056 C 148.711 256.547,150.455 257.377,151.257 257.899 C 152.058 258.422,154.201 259.381,156.019 260.030 C 157.837 260.680,159.920 261.580,160.646 262.029 C 163.328 263.686,164.663 261.213,164.258 255.340 C 163.546 245.023,162.461 238.473,161.154 236.600 C 161.000 236.380,160.747 235.300,160.591 234.200 C 160.319 232.281,159.697 229.668,158.853 226.902 C 158.635 226.187,158.084 225.080,157.628 224.440 C 157.173 223.800,156.800 223.086,156.800 222.852 C 156.800 222.619,156.550 221.657,156.244 220.714 C 155.938 219.771,155.583 218.550,155.454 218.000 C 155.326 217.450,154.745 216.460,154.163 215.800 C 153.085 214.577,151.600 211.564,151.600 210.601 C 151.600 210.308,150.999 209.450,150.264 208.693 C 149.529 207.937,148.533 206.501,148.050 205.503 C 147.567 204.506,146.636 203.129,145.982 202.444 C 145.327 201.759,144.244 200.308,143.574 199.219 C 142.904 198.131,142.031 197.137,141.634 197.011 C 141.238 196.885,140.302 195.886,139.556 194.792 C 138.810 193.697,138.009 192.801,137.776 192.801 C 137.283 192.800,134.800 190.456,134.800 189.991 C 134.800 189.818,134.035 189.218,133.100 188.658 C 132.165 188.098,130.770 187.042,130.000 186.310 C 129.230 185.579,127.655 184.381,126.500 183.648 C 125.345 182.916,124.400 182.183,124.400 182.019 C 124.400 181.855,123.635 181.403,122.700 181.013 C 120.109 179.933,119.020 179.423,118.800 179.186 C 118.140 178.475,114.551 176.400,113.982 176.400 C 113.607 176.400,112.565 176.141,111.666 175.823 C 110.051 175.254,110.020 175.261,109.046 176.418 M175.558 279.960 C 176.241 280.599,176.800 281.499,176.800 281.960 C 176.800 282.422,176.959 282.800,177.153 282.800 C 177.348 282.800,177.622 283.115,177.763 283.500 C 177.904 283.885,178.311 284.728,178.667 285.374 C 179.039 286.047,179.452 288.177,179.638 290.374 C 179.815 292.478,180.219 296.000,180.534 298.200 C 181.411 304.327,179.993 305.344,168.800 306.619 C 167.590 306.757,166.060 307.028,165.400 307.222 C 164.740 307.416,161.770 307.855,158.800 308.199 C 153.229 308.842,149.697 309.489,149.000 309.994 C 148.300 310.501,145.865 311.253,143.800 311.600 C 137.396 312.675,135.079 313.223,132.240 314.337 C 130.502 315.019,127.802 315.870,126.240 316.229 C 124.678 316.588,122.140 317.469,120.600 318.187 C 117.372 319.693,115.297 320.400,114.106 320.400 C 113.645 320.400,111.909 321.120,110.248 322.000 C 108.587 322.880,106.949 323.600,106.609 323.600 C 106.268 323.600,105.677 323.766,105.295 323.968 C 98.121 327.766,97.165 327.746,96.429 323.782 C 95.242 317.387,97.605 313.710,104.000 312.003 C 104.990 311.738,106.113 311.360,106.495 311.161 C 106.877 310.962,107.420 310.800,107.702 310.800 C 107.984 310.800,108.841 310.384,109.607 309.875 C 110.373 309.366,112.620 308.552,114.600 308.067 C 116.580 307.581,119.212 306.661,120.449 306.022 C 121.686 305.382,123.756 304.649,125.049 304.391 C 130.305 303.345,133.129 302.565,135.056 301.628 C 135.968 301.186,137.498 300.716,138.456 300.585 C 142.171 300.079,150.003 298.421,150.600 298.016 C 151.800 297.201,157.825 296.146,163.800 295.705 C 167.196 295.454,167.600 294.974,167.600 291.198 C 167.600 289.505,167.434 287.598,167.231 286.960 C 165.641 281.959,167.490 278.800,172.007 278.800 C 174.002 278.800,174.484 278.957,175.558 279.960 M120.353 372.624 C 122.723 375.217,123.916 377.611,124.628 381.200 C 124.780 381.970,125.675 384.220,126.615 386.200 C 127.555 388.180,128.452 390.610,128.608 391.600 C 128.764 392.590,129.498 394.390,130.239 395.600 C 130.981 396.810,131.907 399.060,132.298 400.600 C 132.689 402.140,133.559 404.390,134.232 405.600 C 135.743 408.318,136.293 409.741,136.628 411.800 C 136.771 412.680,137.237 414.010,137.664 414.756 C 138.884 416.890,140.292 420.578,140.610 422.470 C 140.770 423.421,141.148 424.555,141.450 424.989 C 142.245 426.130,142.180 426.261,140.265 427.383 C 136.986 429.304,131.693 428.058,131.613 425.346 C 131.596 424.761,130.832 423.312,129.727 421.770 C 129.246 421.100,128.728 420.022,128.576 419.376 C 127.347 414.169,125.897 413.600,113.849 413.600 L 105.947 413.600 104.473 414.689 C 101.987 416.528,100.873 417.979,100.596 419.740 C 99.677 425.599,96.941 428.400,92.140 428.400 C 90.049 428.400,89.617 428.261,88.685 427.288 L 87.620 426.177 88.364 423.788 C 88.773 422.475,89.666 420.320,90.349 419.000 C 91.031 417.680,91.595 416.330,91.601 416.000 C 91.620 414.931,93.046 410.772,93.632 410.076 C 94.425 409.134,95.402 406.685,96.266 403.470 C 96.670 401.969,97.312 400.404,97.694 399.993 C 98.478 399.150,99.176 397.388,100.230 393.600 C 100.628 392.170,101.369 390.373,101.876 389.607 C 102.384 388.841,102.800 387.907,102.800 387.531 C 102.800 387.155,102.980 386.736,103.200 386.600 C 103.420 386.464,103.600 386.068,103.600 385.720 C 103.600 384.450,105.216 379.704,105.927 378.884 C 106.329 378.420,106.894 377.267,107.181 376.320 C 108.615 371.601,109.228 370.892,112.049 370.697 C 118.476 370.252,118.106 370.166,120.353 372.624 M183.462 371.000 C 184.251 371.330,185.230 371.600,185.635 371.600 C 187.662 371.600,195.170 377.592,194.114 378.366 C 193.581 378.757,191.600 381.524,191.600 381.877 C 191.600 382.473,190.047 383.193,189.316 382.935 C 188.922 382.797,187.700 382.283,186.600 381.793 C 185.500 381.304,183.792 380.767,182.805 380.600 C 181.818 380.434,180.311 380.051,179.455 379.749 C 177.443 379.039,170.945 379.036,168.714 379.744 C 167.771 380.043,166.223 380.504,165.274 380.768 C 163.451 381.275,160.708 383.661,158.569 386.600 C 157.929 387.480,157.263 388.304,157.089 388.432 C 156.365 388.964,155.029 399.468,155.364 402.000 C 155.979 406.659,156.891 409.626,158.142 411.031 C 158.834 411.808,159.770 413.109,160.222 413.922 C 160.717 414.812,161.672 415.707,162.622 416.173 C 163.490 416.598,164.437 417.276,164.727 417.679 C 165.879 419.282,167.876 419.711,174.400 419.757 C 182.116 419.811,183.139 419.452,184.146 416.334 C 185.978 410.660,184.536 407.579,179.870 407.200 C 177.115 406.976,176.730 406.564,176.247 403.323 C 176.041 401.937,176.155 401.464,176.906 400.592 L 177.814 399.536 184.894 399.475 C 190.041 399.431,192.109 399.549,192.467 399.907 C 192.738 400.178,193.278 400.400,193.666 400.400 C 195.089 400.400,195.255 401.712,195.125 411.980 C 194.978 423.626,195.412 422.550,189.686 425.490 C 181.621 429.630,169.419 429.829,161.386 425.951 C 159.618 425.098,157.962 424.400,157.706 424.400 C 157.218 424.400,154.418 421.959,152.260 419.653 C 148.994 416.162,148.449 415.475,148.002 414.280 C 147.739 413.576,146.904 411.731,146.148 410.180 C 143.459 404.670,143.394 388.400,146.061 388.400 C 146.247 388.400,146.404 388.085,146.409 387.700 C 146.414 387.315,146.950 385.920,147.600 384.600 C 148.250 383.280,148.786 381.979,148.791 381.709 C 148.796 381.439,149.232 380.935,149.760 380.589 C 150.288 380.244,151.189 379.252,151.762 378.386 C 152.382 377.448,153.571 376.421,154.702 375.845 C 155.746 375.313,157.126 374.423,157.769 373.867 C 158.914 372.877,160.177 372.328,164.200 371.073 C 167.045 370.186,181.382 370.131,183.462 371.000 M231.800 371.323 C 235.090 371.984,237.019 372.761,238.400 373.983 C 238.950 374.470,239.914 375.258,240.543 375.734 C 244.325 378.600,244.996 380.568,244.701 387.945 C 244.590 390.725,244.296 393.509,244.048 394.132 C 243.376 395.814,239.182 400.389,238.052 400.673 C 234.976 401.445,234.676 406.022,237.500 409.110 C 237.775 409.411,238.001 409.779,238.002 409.929 C 238.003 410.078,238.520 410.751,239.151 411.423 C 239.781 412.096,240.417 413.023,240.563 413.482 C 240.708 413.942,241.406 414.940,242.114 415.700 C 242.821 416.461,243.745 417.695,244.166 418.442 C 244.588 419.189,245.406 420.350,245.985 421.022 C 247.727 423.043,248.865 425.135,248.729 426.063 C 248.306 428.944,240.443 429.184,237.721 426.400 C 236.255 424.900,232.800 420.034,232.055 418.420 C 231.695 417.639,230.878 416.417,230.240 415.705 C 229.603 414.993,228.482 413.416,227.750 412.201 C 227.018 410.986,225.920 409.493,225.310 408.882 C 224.699 408.272,223.776 407.205,223.258 406.510 C 222.475 405.460,221.956 405.202,220.174 404.979 C 216.571 404.529,216.623 404.370,216.470 416.246 L 216.340 426.351 215.315 427.376 C 213.753 428.938,207.506 428.548,205.344 426.753 C 204.896 426.381,204.800 421.696,204.800 400.113 C 204.800 369.728,204.511 371.759,209.000 370.647 C 210.704 370.224,229.038 370.768,231.800 371.323 M292.151 371.569 C 293.884 372.026,295.344 372.400,295.396 372.400 C 295.448 372.400,296.127 372.895,296.905 373.500 C 297.683 374.105,298.832 374.960,299.457 375.400 C 301.091 376.550,304.246 379.816,305.069 381.209 C 305.456 381.864,305.910 382.400,306.078 382.400 C 307.015 382.400,308.989 388.030,309.584 392.400 C 309.749 393.610,310.187 395.408,310.558 396.396 C 311.236 398.203,310.964 402.509,310.055 404.347 C 309.877 404.706,309.503 406.080,309.224 407.400 C 308.245 412.024,307.504 413.930,305.959 415.801 C 305.101 416.838,304.397 417.893,304.393 418.144 C 304.389 418.395,303.846 419.050,303.187 419.600 C 302.527 420.150,301.675 420.941,301.294 421.357 C 299.244 423.592,298.231 424.343,296.935 424.586 C 295.628 424.831,294.105 425.481,293.600 426.009 C 290.248 429.516,275.361 429.587,269.600 426.124 C 268.390 425.397,267.166 424.802,266.880 424.801 C 264.557 424.796,255.600 415.937,255.600 413.643 C 255.600 413.288,254.977 411.714,254.216 410.145 C 252.098 405.779,251.425 399.416,252.424 393.200 C 252.906 390.197,257.224 380.982,258.324 380.609 C 258.696 380.483,259.482 379.585,260.070 378.613 C 260.728 377.527,261.754 376.534,262.734 376.034 C 263.611 375.586,264.907 374.691,265.615 374.045 C 266.853 372.914,267.848 372.461,272.200 371.047 C 275.184 370.077,287.742 370.405,292.151 371.569 M217.346 378.700 C 216.258 380.304,215.995 394.023,217.001 396.659 L 217.666 398.400 220.639 398.400 C 223.534 398.400,226.800 397.712,226.800 397.103 C 226.800 396.936,227.115 396.796,227.500 396.791 C 229.139 396.771,231.575 395.224,232.636 393.530 C 233.232 392.579,233.910 391.676,234.143 391.525 C 234.872 391.051,235.155 386.353,234.535 385.000 C 233.057 381.772,230.406 379.600,227.945 379.600 C 226.817 379.600,223.202 378.478,222.620 377.947 C 221.648 377.059,218.117 377.564,217.346 378.700 M277.400 379.435 C 271.553 380.773,267.203 384.229,265.068 389.232 C 263.021 394.031,262.880 406.453,264.848 408.580 C 265.042 408.789,265.200 409.214,265.200 409.525 C 265.200 409.836,265.663 410.655,266.228 411.345 C 266.794 412.035,267.651 413.230,268.132 414.000 C 268.617 414.775,269.746 415.757,270.663 416.200 C 271.574 416.640,272.680 417.327,273.121 417.727 C 274.879 419.322,284.331 420.276,287.081 419.137 C 288.830 418.412,295.147 414.246,295.175 413.799 C 295.189 413.578,295.843 412.498,296.630 411.399 C 299.032 408.040,299.287 407.113,299.496 401.000 C 299.723 394.323,299.249 391.242,297.649 389.000 C 297.021 388.120,296.375 386.976,296.214 386.459 C 295.961 385.649,293.490 382.934,291.509 381.291 C 290.093 380.115,280.144 378.806,277.400 379.435 M113.467 384.553 C 113.120 385.083,112.728 386.030,112.596 386.658 C 111.763 390.606,110.950 392.769,109.987 393.600 C 109.618 393.918,108.872 396.074,108.604 397.600 C 108.468 398.370,108.160 399.825,107.920 400.833 C 107.556 402.362,107.601 402.977,108.196 404.533 L 108.909 406.400 115.599 406.400 L 122.290 406.400 122.535 404.300 C 122.777 402.229,122.550 400.400,122.051 400.400 C 121.524 400.400,120.527 397.596,119.634 393.600 C 119.189 391.612,118.241 389.557,117.251 388.439 C 116.783 387.910,116.395 387.280,116.389 387.039 C 116.383 386.797,115.865 385.923,115.238 385.095 L 114.099 383.590 113.467 384.553 "
       id="path1" />
  </g>
  <path
     id="path12"
     d="m 298.37176,323.9913 c -3.29482,-1.57565 -7.55129,-3.36941 -9.45882,-3.98615 -1.90753,-0.61674 -4.88706,-1.6913 -6.62118,-2.38793 -5.71857,-2.29725 -15.0529,-5.11584 -20.1653,-6.0891 -2.76715,-0.52679 -6.31421,-1.37787 -7.88235,-1.89128 -1.56814,-0.51341 -7.60611,-1.6393 -13.41769,-2.50198 -5.81159,-0.86267 -11.62877,-1.86262 -12.92706,-2.2221 -4.37533,-1.21148 -4.28629,-0.96996 -3.38538,-9.18312 0.44352,-4.04329 1.21025,-8.49609 1.70385,-9.89511 0.4936,-1.39902 0.89746,-3.32456 0.89746,-4.27895 0,-3.2234 -0.86784,-3.40623 -12.24746,-2.5802 -14.18002,1.02929 -25.13115,0.39101 -43.22634,-2.51944 -11.42445,-1.83751 -29.46086,-9.20088 -39.63116,-16.17942 -5.57772,-3.82726 -17.02602,-15.40899 -19.84993,-20.08129 -4.49739,-7.44115 -7.22225,-12.70195 -8.3185,-16.06025 -0.61565,-1.886 -1.36262,-3.73837 -1.65993,-4.11637 -0.29731,-0.37799 -1.44746,-4.3507 -2.555892,-8.82823 -2.006022,-8.10339 -2.016321,-8.22869 -2.231282,-27.14692 l -0.215957,-19.00595 1.696726,-2.01644 c 1.510435,-1.79505 1.979705,-1.98446 4.274115,-1.72512 5.05498,0.57137 18.40489,6.043 26.99472,11.06412 7.98684,4.66865 20.20266,16.06093 25.75745,24.02098 4.15604,5.95561 7.37358,11.18715 7.87413,12.80285 0.24411,0.78791 1.14338,2.8241 1.9984,4.52485 0.85502,1.70076 1.95165,4.61678 2.43697,6.48006 0.48533,1.86327 1.31785,4.05233 1.85005,4.86458 0.53221,0.81225 1.35204,3.57152 1.82186,6.13171 0.46981,2.5602 1.30007,6.35749 1.84502,8.43843 1.04825,4.00285 2.30698,14.19901 2.31289,18.73515 0.006,4.79471 0.98525,7.08241 3.40545,7.95756 8.16289,2.95174 45.67009,2.44163 51.85354,-0.70523 0.99315,-0.50543 3.77585,-1.25662 6.18379,-1.66932 2.40794,-0.41271 5.52935,-1.26625 6.93647,-1.89678 1.40712,-0.63052 3.25051,-1.35824 4.09642,-1.61716 4.42742,-1.35514 15.51439,-7.51139 19.81226,-11.00113 4.73266,-3.84277 7.43178,-6.35437 10.12487,-9.42143 3.45783,-3.93801 8.28123,-11.20093 9.67603,-14.5699 0.50256,-1.21388 1.56722,-3.62588 2.3659,-5.36 0.79868,-1.73411 1.64039,-4.14611 1.87046,-5.36 0.23007,-1.21388 0.95995,-3.90964 1.62197,-5.99058 1.59916,-5.02674 2.48017,-13.30679 2.4865,-23.36889 0.006,-10.09914 -0.32945,-10.83549 -4.43688,-9.72947 -1.53898,0.4144 -3.51017,1.25459 -4.3804,1.86709 -0.87024,0.6125 -2.8592,1.75775 -4.4199,2.545 -4.39089,2.21485 -13.80427,9.56773 -18.32284,14.31212 -5.66292,5.94596 -10.12729,12.10398 -13.16371,18.15768 -1.04377,2.08094 -2.16897,4.20917 -2.50046,4.72941 -0.33148,0.52023 -1.01442,2.22282 -1.51763,3.78353 -0.50321,1.5607 -1.49395,4.25647 -2.20165,5.99058 -1.88204,4.61167 -4.45467,16.12225 -5.16304,23.10068 -0.33915,3.34114 -0.88568,6.78244 -1.21451,7.64732 -0.67876,1.78528 -3.48166,2.98848 -6.96179,2.98848 -4.15133,0 -4.4557,-1.29418 -2.89198,-12.29648 1.27658,-8.98201 4.02843,-21.65318 5.04751,-23.24185 0.47669,-0.7431 1.33119,-2.97071 1.8989,-4.95025 0.91881,-3.20373 3.82372,-9.90857 5.4074,-12.48084 0.32029,-0.52023 1.18823,-2.06804 1.92876,-3.43957 5.78327,-10.71132 17.04855,-22.67789 28.30445,-30.06651 8.5767,-5.62992 14.23378,-8.3983 23.64706,-11.57203 7.72822,-2.60561 9.85733,-2.47664 11.0535,0.66954 1.68718,4.43761 1.15942,38.93094 -0.68964,45.07399 -0.35961,1.19473 -1.18607,4.44235 -1.83658,7.21694 -3.82607,16.31925 -14.08008,31.98941 -27.58939,42.16207 -8.73454,6.57719 -19.50392,11.99412 -29.61978,14.89854 -7.51417,2.15743 -9.30541,5.00994 -10.08527,16.06053 -0.29323,4.15523 -0.17807,5.24493 0.62471,5.91117 0.54131,0.44926 3.77117,1.23061 7.17745,1.73633 3.40628,0.50573 7.47017,1.32295 9.03088,1.81605 1.56071,0.49311 5.3756,1.35779 8.47755,1.92152 3.10194,0.56373 6.11974,1.28178 6.70621,1.59565 0.58648,0.31387 4.00759,1.40934 7.60246,2.43436 6.03164,1.71983 9.0845,2.78046 20.91952,7.26792 9.04729,3.43045 10.52485,4.71627 10.52485,9.15913 0,3.66872 -1.05488,6.35673 -2.46593,6.28361 -0.55127,-0.0286 -3.69807,-1.34111 -6.9929,-2.91676 z M 164.14247,260.90588 c 0.85819,-2.17136 -0.29037,-16.8506 -1.67224,-21.3723 -0.51485,-1.68465 -1.51383,-5.46944 -2.21996,-8.41065 -0.70613,-2.94122 -1.67618,-5.9464 -2.15567,-6.67819 -0.47948,-0.73178 -1.20455,-2.58181 -1.61125,-4.11116 -0.4067,-1.52935 -1.56489,-4.03529 -2.57375,-5.56875 -1.00887,-1.53346 -1.83431,-3.16265 -1.83431,-3.62043 0,-0.45777 -0.92223,-2.08348 -2.04941,-3.61269 -1.12717,-1.52921 -3.12895,-4.29837 -4.44838,-6.15369 -3.5454,-4.98536 -10.05771,-11.39028 -16.61289,-16.33895 -3.1878,-2.40655 -6.04679,-4.37554 -6.35332,-4.37554 -0.30652,0 -1.9493,-0.88277 -3.65061,-1.96171 -1.70132,-1.07894 -4.37025,-2.34602 -5.93097,-2.81573 -2.54041,-0.76455 -2.96449,-0.7407 -4.04822,0.2276 -1.1391,1.01776 -1.18771,1.7702 -0.82358,12.74749 0.39609,11.94074 0.51226,12.82982 2.88372,22.07058 1.2938,5.04154 4.04183,12.22111 6.03403,15.76471 0.48746,0.86706 1.50938,2.71153 2.27095,4.09882 2.18833,3.98637 9.11897,12.28068 13.05269,15.62095 5.26393,4.46978 11.34977,8.33407 17.94937,11.39718 3.204,1.48709 6.81862,3.16328 8.03251,3.72486 3.37439,1.56111 4.96329,1.3867 5.76129,-0.6324 z"
     style="fill:#5a5539;fill-opacity:1;stroke-width:0.630588" />
  <path
     id="path14"
     d="m 207.3736,427.41254 c -0.62663,-0.1624 -1.40699,-0.99925 -1.73411,-1.85967 -0.73799,-1.94105 -0.74451,-46.77099 -0.007,-50.5873 0.29287,-1.51622 0.91898,-3.01811 1.39136,-3.33752 0.47917,-0.324 6.29492,-0.4842 13.15533,-0.36236 13.50837,0.23989 14.83113,0.53487 19.60703,4.37241 3.80376,3.05641 4.35533,4.54296 4.35533,11.73831 0,6.1123 -0.0452,6.30553 -2.0727,8.86772 -1.13999,1.4406 -3.15955,3.3578 -4.48791,4.26045 -2.28171,1.55046 -2.39855,1.78905 -2.11369,4.3163 0.1869,1.65822 1.07075,3.72795 2.32511,5.44477 11.12696,15.22929 11.34529,15.60336 9.77674,16.75031 -0.63044,0.46099 -2.48906,0.83816 -4.13028,0.83816 -4.03488,0 -5.77917,-1.57478 -11.79114,-10.64528 -6.51405,-9.82802 -9.28415,-12.68649 -12.29426,-12.68649 -2.84363,0 -2.80851,-0.13529 -3.14703,12.12047 -0.17221,6.23451 -0.5192,9.59945 -1.05666,10.24705 -0.7771,0.93635 -5.06694,1.2247 -7.77576,0.52267 z m 19.52607,-29.71726 c 0.63883,-0.33235 1.91261,-0.89917 2.83064,-1.25959 2.34167,-0.91936 5.00478,-4.65414 5.39543,-7.56663 0.38592,-2.87724 -1.15553,-6.65907 -3.28213,-8.05247 -1.6089,-1.05419 -7.04915,-2.66527 -10.76237,-3.18718 -3.61922,-0.50869 -4.64728,0.69572 -4.82756,5.65563 -0.18008,4.9543 0.0374,10.85249 0.50136,13.60029 l 0.36089,2.1371 4.31112,-0.36143 c 2.37111,-0.19879 4.83379,-0.63336 5.47262,-0.96572 z"
     style="fill:#5a5539;fill-opacity:1;stroke-width:0.630588" />
</svg>
