<?xml version="1.0" standalone="no"?>
<!DOCTYPE svg PUBLIC "-//W3C//DTD SVG 20010904//EN"
 "http://www.w3.org/TR/2001/REC-SVG-20010904/DTD/svg10.dtd">
<svg version="1.0" xmlns="http://www.w3.org/2000/svg"
 width="512.000000pt" height="512.000000pt" viewBox="0 0 512.000000 512.000000"
 preserveAspectRatio="xMidYMid meet">
<metadata>
Created by potrace 1.14, written by Peter Selinger 2001-2017
</metadata>
<g transform="translate(0.000000,512.000000) scale(0.100000,-0.100000)"
fill="#000000" stroke="none">
<path d="M1915 4943 c-11 -2 -90 -18 -175 -34 -85 -17 -162 -32 -170 -34 -21
-3 -94 -18 -100 -20 -3 -1 -39 -7 -80 -14 -138 -25 -204 -66 -246 -156 -23
-48 -24 -59 -24 -275 l0 -226 -52 -34 c-97 -64 -133 -195 -82 -297 l21 -43
-25 -16 c-82 -53 -121 -165 -92 -263 22 -79 92 -143 176 -162 l54 -12 1 -61
c2 -195 44 -339 144 -496 69 -107 177 -210 288 -275 l48 -27 -3 -141 c-3 -140
-3 -141 -28 -148 -36 -10 -486 -151 -605 -189 -55 -18 -127 -46 -160 -62 -194
-97 -358 -281 -431 -482 -50 -139 -53 -181 -51 -748 2 -491 3 -528 20 -545 17
-17 98 -18 1650 -20 1597 -3 1633 -2 1657 17 23 17 25 26 28 119 l4 101 -41 0
-41 0 0 44 c0 40 2 44 29 49 81 16 218 102 300 186 235 244 269 610 84 893
-24 37 -48 70 -52 72 -7 5 67 291 264 1021 38 138 70 262 72 276 4 21 16 31
59 48 219 91 387 303 427 537 34 201 -14 397 -138 562 -56 74 -79 92 -120 92
-53 0 -69 -29 -120 -225 -26 -99 -50 -189 -53 -200 -3 -11 -5 -23 -4 -27 2 -9
-78 -31 -198 -54 -77 -14 -75 -15 -244 138 l-30 27 52 193 c68 254 67 246 52
273 -19 36 -59 49 -109 35 -189 -51 -360 -199 -448 -388 -109 -233 -81 -518
68 -719 22 -29 39 -56 39 -61 0 -9 -111 -427 -252 -947 -22 -82 -41 -154 -42
-160 -6 -23 -18 -71 -23 -87 -5 -22 -19 -22 -54 -4 -35 18 -187 67 -609 198
-36 11 -83 26 -105 33 l-40 13 -2 138 -3 139 72 45 c173 109 317 299 371 492
27 93 34 148 36 259 l1 66 39 7 c109 17 192 111 197 223 4 75 -15 121 -68 177
l-48 50 19 51 c40 107 6 222 -85 283 l-49 34 -5 236 c-5 218 -7 240 -27 277
-28 52 -68 90 -118 111 -32 13 -200 51 -355 80 -14 3 -59 12 -100 20 -41 9
-86 18 -100 20 -14 2 -38 7 -55 11 -35 7 -181 11 -210 6z"/>
</g>
</svg>
